#N canvas 0 0 715 555 12;
#X declare -lib ceammc -lib creammc;
#X obj 285 50 cnv 1 410 21 empty empty empty 17 7 0 10 -245760 -1 0;
#X text 285 50 check if input value approximately equal to pattern;
#X obj 1 1 cnv 5 712 40 empty empty approx 20 20 0 20 -104026 -4096 0;
#X obj 643 11 approx;
#X obj 205 80 cnv 1 490 33 empty empty empty 17 7 0 10 -257983 -1 0;
#X text 210 80 checks is |x - pattern| <= |epsilon|;
#X obj 50 141 hslider 128 15 0.0 127.0 0 0 empty empty empty 17 7 0 10
-262144 -1 -1 0 0;
#X msg 88 170 1.99 2 0.01;
#X floatatom 50 199 5 0 0 0 - - -;
#X obj 50 228 approx 50 10;
#X text 194 228 40 <= x <= 60;
#X floatatom 50 257 5 0 0 0 - - -;
#X obj 20 296 cnv 1 685 1 empty empty empty 17 7 0 10 -203890 -1 0;
#X obj 20 301 cnv 5 90 26 empty empty arguments: 4 10 0 14 -262144
-49933 0;
#X text 120 306 1\.;
#X text 150 306 float;
#X obj 241 307 cnv 1 16 18 empty empty empty 17 7 0 10 -245695 -1 0;
#X text 240 306 P: compare pattern.;
#X text 120 324 2\.;
#X text 150 324 float;
#X obj 241 325 cnv 1 16 18 empty empty empty 17 7 0 10 -245695 -1 0;
#X text 240 324 E: compare epsilon.;
#X obj 20 352 cnv 1 685 1 empty empty empty 17 7 0 10 -203890 -1 0;
#X obj 20 357 cnv 5 98 26 empty empty properties: 4 10 0 14 -262144
-49933 0;
#X msg 120 362 value;
#X text 240 362 Get/Set compare pattern. Type: float. Default value:
0;
#X msg 120 389 epsilon;
#X text 240 389 Get/Set compare epsilon. Type: float. Default value:
0.01;
#X obj 20 426 cnv 1 685 1 empty empty empty 17 7 0 10 -203890 -1 0;
#X obj 20 431 cnv 5 64 26 empty empty inlets: 4 10 0 14 -262144 -49933
0;
#X text 120 436 1\.;
#X text 150 436 *float*;
#X text 240 436 input value.;
#X text 150 454 *list*;
#X text 240 454 list values are spreaded among three inlets.;
#X text 120 472 2\.;
#X text 150 472 *float*;
#X text 240 472 pattern value.;
#X text 120 490 3\.;
#X text 150 490 *float*;
#X text 240 490 epsilon.;
#X obj 20 518 cnv 1 685 1 empty empty empty 17 7 0 10 -203890 -1 0;
#X obj 20 523 cnv 5 73 26 empty empty outlets: 4 10 0 14 -262144
-49933 0;
#X text 120 528 1\.;
#X text 240 528 output 1 if input value is approximately equal to
pattern \, 0 0 otherwise;
#X obj 10 48 ui.link @title index @url index-help.pd;
#X text 51 45 ::;
#X obj 67 48 ui.link @title ceammc @url ceammc-help.pd;
#X text 115 45 ::;
#X obj 131 48 ui.link @title base @url ceammc.base-help.pd;
#X obj 1 590 cnv 5 712 48 empty empty empty 17 7 0 10 -203890 -1 0;
#X text 10 593 library: ceammc v0.1;
#N canvas 10 612 400 290 info 0;
#X obj 1 1 cnv 1 107 287 empty empty empty 17 7 0 10 -183085 -1 0;
#X text 10 10 library:;
#X text 120 10 ceammc;
#X text 10 32 version:;
#X text 120 32 0.1;
#X text 10 54 object:;
#X text 120 54 approx;
#X text 10 76 category:;
#X text 120 76 base;
#X text 10 98 since:;
#X text 120 98 0.1;
#X text 10 120 authors:;
#X text 120 120 Serge Poltavsky;
#X text 10 142 license:;
#X text 120 142 GPL3;
#X text 10 164 keywords:;
#X text 120 164 base \, equal \, compare \, approx;
#X text 10 186 website:;
#X obj 120 189 ui.link @title https://github.com/uliss/pure-data @url
https://github.com/uliss/pure-data;
#X obj 120 208 declare -lib ceammc -lib creammc;
#X obj 120 268 cnv 1 270 1 empty empty empty 17 7 0 10 -203890 -1 0;
#X text 120 268 generated by pddoc;
#X restore 10 612 pd info;
#X connect 6 0 8 0;
#X connect 8 0 9 0;
#X connect 9 0 11 0;
#X connect 7 0 9 0;
