#N canvas 0 0 715 555 12;
#X declare -lib ceammc -lib creammc;
#X obj 317 50 cnv 1 378 21 empty empty empty 17 7 0 10 -245760 -1 0;
#X text 317 50 iterate and modify array content via side-chain;
#X obj 1 1 cnv 5 712 40 empty empty array.do 20 20 0 20 -104026 -4096
0;
#X obj 629 11 array.do;
#N canvas 0 22 450 300 (subpatch) 0;
#X array A1 100 float 0;
#A 0 0 0 0 0 0 0 0 0 0 0 0 0 0 0 0 0 0 0 0 0 0 0 0 0 0 0 0 0 0 0 0 0 0
0 0 0 0 0 0 0 0 0 0 0 0 0 0 0 0 0 0 0 0 0 0 0 0 0 0 0 0 0 0 0 0 0 0 0
0 0 0 0 0 0 0 0 0 0 0 0 0 0 0 0 0 0 0 0 0 0 0 0 0 0 0 0 0 0 0 0;
#X coords 0 1 100 0 130 100 1;
#X restore 50 118 graph;
#X obj 50 234 bng 15 250 50 0 empty empty empty 17 7 0 10 -262144 -1
-1;
#X obj 50 262 array.do A1;
#X obj 213 262 unpack f f f;
#X obj 50 291 bng 15 250 50 0 empty empty empty 17 7 0 10 -262144 -1
-1;
#X obj 242 291 /;
#X obj 20 330 cnv 1 685 1 empty empty empty 17 7 0 10 -203890 -1 0;
#X obj 20 335 cnv 5 98 26 empty empty properties: 4 10 0 14 -262144
-49933 0;
#X msg 120 340 @array;
#X text 240 340 Get/Set array name. Type: symbol;
#X msg 120 367 @redraw;
#X text 240 367 Get/Set redraw after array change. Type: int. Default
value: 1\. Allowed values: 1 \, 0;
#X obj 20 414 cnv 1 685 1 empty empty empty 17 7 0 10 -203890 -1 0;
#X obj 20 419 cnv 5 64 26 empty empty inlets: 4 10 0 14 -262144 -49933
0;
#X text 120 424 1\.;
#X text 150 424 *bang*;
#X text 240 424 starts iteration.;
#X text 150 442 *symbol*;
#X text 240 442 set array name.;
#X text 120 460 2\.;
#X text 150 460 *float*;
#X text 240 460 sample value from side-chain.;
#X obj 20 488 cnv 1 685 1 empty empty empty 17 7 0 10 -203890 -1 0;
#X obj 20 493 cnv 5 73 26 empty empty outlets: 4 10 0 14 -262144
-49933 0;
#X text 120 498 1\.;
#X text 240 498 bang on finish;
#X text 120 516 2\.;
#X text 240 516 for each array sample outputs list: SAMPLE_VALUE \,
SAMPLE_POS \, TOTAL_SAMPLES;
#X obj 10 48 ui.link @title index @url index-help.pd;
#X text 51 45 ::;
#X obj 67 48 ui.link @title ceammc @url ceammc-help.pd;
#X text 115 45 ::;
#X obj 131 48 ui.link @title array @url ceammc.array-help.pd;
#X obj 1 578 cnv 5 712 48 empty empty empty 17 7 0 10 -203890 -1 0;
#X text 10 581 library: ceammc v0.3;
#X text 542 593 see also:;
#X obj 618 593 array.each;
#N canvas 10 600 400 290 info 0;
#X obj 1 1 cnv 1 107 287 empty empty empty 17 7 0 10 -183085 -1 0;
#X text 10 10 library:;
#X text 120 10 ceammc;
#X text 10 32 version:;
#X text 120 32 0.3;
#X text 10 54 object:;
#X text 120 54 array.do;
#X text 10 76 category:;
#X text 120 76 array;
#X text 10 98 since:;
#X text 120 98 0.3;
#X text 10 120 authors:;
#X text 120 120 Serge Poltavsky;
#X text 10 142 license:;
#X text 120 142 GPL3;
#X text 10 164 keywords:;
#X text 120 164 array \, do;
#X text 10 186 website:;
#X obj 120 189 ui.link @title https://github.com/uliss/pure-data @url
https://github.com/uliss/pure-data;
#X obj 120 208 declare -lib ceammc -lib creammc;
#X obj 120 268 cnv 1 270 1 empty empty empty 17 7 0 10 -203890 -1 0;
#X text 120 268 generated by pddoc;
#X restore 10 600 pd info;
#X connect 7 1 9 0;
#X connect 9 0 6 1;
#X connect 6 1 7 0;
#X connect 6 0 8 0;
#X connect 5 0 6 0;
#X connect 7 2 9 1;
