#N canvas 0 0 715 555 12;
#X declare -lib ceammc -lib creammc;
#X obj 428 50 cnv 1 267 21 empty empty empty 17 7 0 10 -245760 -1 0;
#X text 428 50 converts BPM to frequency in herz;
#X obj 1 1 cnv 5 712 40 empty empty conv.bpm2hz 20 20 0 20 -104026
-4096 0;
#X obj 533 11 bpm->hz;
#X obj 608 11 conv.bpm2hz;
#X obj 205 80 cnv 1 490 47 empty empty empty 17 7 0 10 -257983 -1 0;
#X text 210 80 Converts frequency from BPM (beats per minute) to herz.
It is simple as /60 \, but more readable.;
#X msg 50 155 120;
#X floatatom 50 184 5 0 0 0 - - -;
#X text 98 184 simple metronome;
#X obj 50 213 bpm->hz;
#X obj 50 242 lfo.impulse~;
#X obj 50 271 flt.resonbp~ 1000 20;
#X obj 69 299 tgl 15 0 empty empty empty 17 7 0 10 -262144 -1 -1 0 1;
#X obj 50 328 *~;
#X obj 50 357 dac~;
#X obj 20 396 cnv 1 685 1 empty empty empty 17 7 0 10 -203890 -1 0;
#X obj 20 401 cnv 5 64 26 empty empty inlets: 4 10 0 14 -262144 -49933
0;
#X text 120 406 1\.;
#X text 150 406 *float*;
#X text 240 406 frequency in BPM.;
#X obj 20 434 cnv 1 685 1 empty empty empty 17 7 0 10 -203890 -1 0;
#X obj 20 439 cnv 5 73 26 empty empty outlets: 4 10 0 14 -262144
-49933 0;
#X text 120 444 1\.;
#X text 240 444 period in milliseconds;
#X obj 10 48 ui.link @title index @url index-help.pd;
#X text 51 45 ::;
#X obj 67 48 ui.link @title ceammc @url ceammc-help.pd;
#X text 115 45 ::;
#X obj 131 48 ui.link @title conv @url ceammc.conv-help.pd;
#X obj 1 505 cnv 5 712 48 empty empty empty 17 7 0 10 -203890 -1 0;
#X text 10 508 library: ceammc v0.3;
#X text 535 520 see also:;
#X obj 611 520 conv.bpm2ms;
#N canvas 10 527 400 290 info 0;
#X obj 1 1 cnv 1 107 287 empty empty empty 17 7 0 10 -183085 -1 0;
#X text 10 10 library:;
#X text 120 10 ceammc;
#X text 10 32 version:;
#X text 120 32 0.3;
#X text 10 54 object:;
#X text 120 54 conv.bpm2hz;
#X text 10 76 category:;
#X text 120 76 conv;
#X text 10 98 since:;
#X text 120 98 0.1;
#X text 10 120 authors:;
#X text 120 120 Serge Poltavsky;
#X text 10 142 license:;
#X text 120 142 GPL3;
#X text 10 164 keywords:;
#X text 120 164 conv \, time;
#X text 10 186 website:;
#X obj 120 189 ui.link @title https://github.com/uliss/pure-data @url
https://github.com/uliss/pure-data;
#X obj 120 208 declare -lib ceammc -lib creammc;
#X obj 120 268 cnv 1 270 1 empty empty empty 17 7 0 10 -203890 -1 0;
#X text 120 268 generated by pddoc;
#X restore 10 527 pd info;
#X connect 14 0 15 0;
#X connect 7 0 8 0;
#X connect 8 0 10 0;
#X connect 10 0 11 0;
#X connect 11 0 12 0;
#X connect 13 0 14 1;
#X connect 12 0 14 0;
