#N canvas 0 0 715 555 12;
#X declare -lib ceammc -lib creammc;
#X obj 237 50 cnv 1 458 35 empty empty empty 17 7 0 10 -245760 -1 0;
#X text 237 50 convert time in seconds to number of samples according
to current samplerate;
#X obj 1 1 cnv 5 712 40 empty empty conv.sec2samp 20 20 0 20 -104026
-4096 0;
#X obj 503 11 sec->samp;
#X obj 593 11 conv.sec2samp;
#X msg 50 118 1;
#X msg 98 118 1 1.5 2.9;
#X obj 50 147 sec->samp;
#X obj 50 176 msg set;
#X msg 50 205 ;
#X obj 20 244 cnv 1 685 1 empty empty empty 17 7 0 10 -203890 -1 0;
#X obj 20 249 cnv 5 64 26 empty empty inlets: 4 10 0 14 -262144 -49933
0;
#X text 120 254 1\.;
#X text 150 254 *float*;
#X text 240 254 time in seconds.;
#X text 150 272 *list*;
#X text 240 272 list of times in seconds.;
#X obj 20 300 cnv 1 685 1 empty empty empty 17 7 0 10 -203890 -1 0;
#X obj 20 305 cnv 5 73 26 empty empty outlets: 4 10 0 14 -262144
-49933 0;
#X text 120 310 1\.;
#X text 240 310 converted value (float or list);
#X obj 10 48 ui.link @title index @url index-help.pd;
#X text 51 45 ::;
#X obj 67 48 ui.link @title ceammc @url ceammc-help.pd;
#X text 115 45 ::;
#X obj 131 48 ui.link @title conv @url ceammc.conv-help.pd;
#X obj 1 505 cnv 5 712 48 empty empty empty 17 7 0 10 -203890 -1 0;
#X text 10 508 library: ceammc v0.3;
#X text 520 520 see also:;
#X obj 596 520 conv.samp2sec;
#N canvas 10 527 400 290 info 0;
#X obj 1 1 cnv 1 107 287 empty empty empty 17 7 0 10 -183085 -1 0;
#X text 10 10 library:;
#X text 120 10 ceammc;
#X text 10 32 version:;
#X text 120 32 0.3;
#X text 10 54 object:;
#X text 120 54 conv.sec2samp;
#X text 10 76 category:;
#X text 120 76 conv;
#X text 10 98 since:;
#X text 120 98 0.2;
#X text 10 120 authors:;
#X text 120 120 Serge Poltavsky;
#X text 10 142 license:;
#X text 120 142 GPL3;
#X text 10 164 keywords:;
#X text 120 164 conv \, samp \, sec;
#X text 10 186 website:;
#X obj 120 189 ui.link @title https://github.com/uliss/pure-data @url
https://github.com/uliss/pure-data;
#X obj 120 208 declare -lib ceammc -lib creammc;
#X obj 120 268 cnv 1 270 1 empty empty empty 17 7 0 10 -203890 -1 0;
#X text 120 268 generated by pddoc;
#X restore 10 527 pd info;
#X connect 7 0 8 0;
#X connect 8 0 9 0;
#X connect 6 0 7 0;
#X connect 5 0 7 0;
