#N canvas 0 0 715 555 12;
#X declare -lib ceammc -lib creammc;
#X obj 268 50 cnv 1 427 35 empty empty empty 17 7 0 10 -245760 -1 0;
#X text 268 50 Envelope follower with independent attack and release
times.;
#X obj 1 1 cnv 5 712 40 empty empty env.follow~ 20 20 0 20 -104026
-4096 0;
#X obj 606 11 env.follow~;
#X obj 50 118 osc~ 440;
#X floatatom 155 118 5 0 0 0 - - -;
#X floatatom 203 133 5 0 0 0 - - -;
#X obj 69 147 dbtorms;
#X msg 203 162 attack \$1;
#X obj 50 176 *~;
#X obj 98 176 bng 15 250 50 0 empty empty empty 17 7 0 10 -262144 -1
-1;
#X obj 50 205 env.follow~ 50 200 id;
#X obj 146 234 tgl 15 0 empty empty empty 17 7 0 10 -262144 -1 -1 0 1;
#X obj 213 234 print;
#X obj 146 262 metro 30;
#X obj 50 291 snapshot~;
#X floatatom 50 320 5 0 0 0 - - -;
#X obj 20 359 cnv 1 685 1 empty empty empty 17 7 0 10 -203890 -1 0;
#X obj 20 364 cnv 5 90 26 empty empty arguments: 4 10 0 14 -262144
-49933 0;
#X text 120 369 1\.;
#X text 150 369 float;
#X obj 241 370 cnv 1 88 18 empty empty empty 17 7 0 10 -245695 -1 0;
#X text 240 369 attack(ms): attack time.;
#X text 120 387 2\.;
#X text 150 387 float;
#X obj 241 388 cnv 1 94 18 empty empty empty 17 7 0 10 -245695 -1 0;
#X text 240 387 release(ms): release time.;
#X text 120 405 3\.;
#X text 150 405 symbol;
#X obj 241 406 cnv 1 24 18 empty empty empty 17 7 0 10 -245695 -1 0;
#X text 240 405 ID: object ID for OSC control path.;
#X obj 20 433 cnv 1 685 1 empty empty empty 17 7 0 10 -203890 -1 0;
#X obj 20 438 cnv 5 73 26 empty empty methods: 4 10 0 14 -262144
-49933 0;
#X msg 120 443 attack;
#X text 240 443 Arguments are:;
#X obj 250 471 cnv 1 22 21 empty empty empty 17 7 0 10 -245695 -1 0;
#X text 250 471 MS: attack time. Type: float.;
#X msg 120 499 release;
#X text 240 499 Arguments are:;
#X obj 250 527 cnv 1 22 21 empty empty empty 17 7 0 10 -245695 -1 0;
#X text 250 527 MS: release time. Type: float.;
#X obj 20 565 cnv 1 685 1 empty empty empty 17 7 0 10 -203890 -1 0;
#X obj 20 570 cnv 5 64 26 empty empty inlets: 4 10 0 14 -262144 -49933
0;
#X text 120 575 1\.;
#X text 240 575 input signal.;
#X text 150 593 *bang*;
#X text 240 593 outputs object internal state to rightmost outlet.;
#X obj 20 621 cnv 1 685 1 empty empty empty 17 7 0 10 -203890 -1 0;
#X obj 20 626 cnv 5 73 26 empty empty outlets: 4 10 0 14 -262144
-49933 0;
#X text 120 631 1\.;
#X text 240 631 amplitude envelope that follows the absolute value
going up/down;
#X text 120 663 2\.;
#X text 240 663 information output;
#X obj 10 48 ui.link @title index @url index-help.pd;
#X text 51 45 ::;
#X obj 67 48 ui.link @title ceammc @url ceammc-help.pd;
#X text 115 45 ::;
#X obj 131 48 ui.link @title env @url ceammc.env-help.pd;
#X obj 1 711 cnv 5 712 48 empty empty empty 17 7 0 10 -203890 -1 0;
#X text 10 714 library: ceammc v0.3;
#X text 548 726 see also:;
#X obj 624 726 env.adsr~;
#N canvas 10 733 400 290 info 0;
#X obj 1 1 cnv 1 107 287 empty empty empty 17 7 0 10 -183085 -1 0;
#X text 10 10 library:;
#X text 120 10 ceammc;
#X text 10 32 version:;
#X text 120 32 0.3;
#X text 10 54 object:;
#X text 120 54 env.follow~;
#X text 10 76 category:;
#X text 120 76 env;
#X text 10 98 since:;
#X text 120 98 0.1;
#X text 10 120 authors:;
#X text 120 120 Serge Poltavsky;
#X text 10 142 license:;
#X text 120 142 GPL3;
#X text 10 164 keywords:;
#X text 120 164 envelope \, amplitude \, follower;
#X text 10 186 website:;
#X obj 120 189 ui.link @title https://github.com/uliss/pure-data @url
https://github.com/uliss/pure-data;
#X obj 120 208 declare -lib ceammc -lib creammc;
#X obj 120 268 cnv 1 270 1 empty empty empty 17 7 0 10 -203890 -1 0;
#X text 120 268 generated by pddoc;
#X restore 10 733 pd info;
#X connect 8 0 11 0;
#X connect 9 0 11 0;
#X connect 5 0 7 0;
#X connect 15 0 16 0;
#X connect 11 0 15 0;
#X connect 14 0 15 0;
#X connect 6 0 8 0;
#X connect 10 0 11 0;
#X connect 7 0 9 1;
#X connect 11 1 13 0;
#X connect 12 0 14 0;
#X connect 4 0 9 0;
