#N canvas 0 0 715 555 12;
#X declare -lib ceammc -lib creammc;
#X obj 323 50 cnv 1 372 21 empty empty empty 17 7 0 10 -245760 -1 0;
#X text 323 50 Substitute enviroment variables in data stream;
#X obj 1 1 cnv 5 712 40 empty empty expand_env 20 20 0 20 -104026
-4096 0;
#X obj 614 11 expand_env;
#X obj 205 80 cnv 1 490 84 empty empty empty 17 7 0 10 -257983 -1 0;
#X text 210 80 Environment variable %HOME% will be replaced by home
user directory under UNIX;
#X text 210 117 Some special variables defined: %DOC% - path to
PureData doc directory \, %CEAMMC% - path to ceammc library directory;
#X obj 50 192 bng 15 250 50 0 empty empty empty 17 7 0 10 -262144 -1
-1;
#X floatatom 88 192 5 0 0 0 - - -;
#X msg 136 192 symbol user:%USER%;
#X msg 338 192 list current shell: %SHELL%;
#X msg 165 221 doc: %DOC%;
#X msg 366 221 doc: %CEAMMC%;
#X msg 194 250 %DOC%;
#X msg 386 250 home: %HOME%;
#X obj 50 279 expand_env;
#X obj 50 308 ui.display @display_type 1 @size 150 18;
#X msg 50 379 %CEAMMC%;
#X obj 50 408 expand_env @any;
#X obj 50 437 symbol;
#X symbolatom 50 466 70 0 0 0 - - -;
#X obj 50 495 print;
#X obj 20 534 cnv 1 685 1 empty empty empty 17 7 0 10 -203890 -1 0;
#X obj 20 539 cnv 5 90 26 empty empty arguments: 4 10 0 14 -262144
-49933 0;
#X text 120 544 1\.;
#X text 150 544 property;
#X obj 241 545 cnv 1 41 18 empty empty empty 17 7 0 10 -245695 -1 0;
#X text 240 544 @any: if specified - also do substitution in message
selector.;
#X obj 20 586 cnv 1 685 1 empty empty empty 17 7 0 10 -203890 -1 0;
#X obj 20 591 cnv 5 64 26 empty empty inlets: 4 10 0 14 -262144 -49933
0;
#X text 120 596 1\.;
#X text 150 596 *bang*;
#X text 240 596 passed.;
#X text 150 614 *float*;
#X text 240 614 passed.;
#X text 150 632 *symbol*;
#X text 240 632 expand variable inside symbol string.;
#X text 150 650 *list*;
#X text 240 650 expand variables inside each list symbol.;
#X text 150 668 *any*;
#X text 240 668 expand variables inside each list symbol \, more over
\, if @any argument was used - expand in message selector.;
#X obj 20 710 cnv 1 685 1 empty empty empty 17 7 0 10 -203890 -1 0;
#X obj 20 715 cnv 5 73 26 empty empty outlets: 4 10 0 14 -262144
-49933 0;
#X text 120 720 1\.;
#X text 240 720 output data stream;
#X obj 10 48 ui.link @title index @url index-help.pd;
#X text 51 45 ::;
#X obj 67 48 ui.link @title ceammc @url ceammc-help.pd;
#X text 115 45 ::;
#X obj 131 48 ui.link @title flow @url ceammc.flow-help.pd;
#X obj 1 768 cnv 5 712 48 empty empty empty 17 7 0 10 -203890 -1 0;
#X text 10 771 library: ceammc v0.3;
#X text 564 783 see also:;
#X obj 640 783 replace;
#N canvas 10 790 400 290 info 0;
#X obj 1 1 cnv 1 107 287 empty empty empty 17 7 0 10 -183085 -1 0;
#X text 10 10 library:;
#X text 120 10 ceammc;
#X text 10 32 version:;
#X text 120 32 0.3;
#X text 10 54 object:;
#X text 120 54 expand_env;
#X text 10 76 category:;
#X text 120 76 flow;
#X text 10 98 since:;
#X text 120 98 0.1;
#X text 10 120 authors:;
#X text 120 120 Serge Poltavsky;
#X text 10 142 license:;
#X text 120 142 GPL3;
#X text 10 164 keywords:;
#X text 120 164 expand_env \, test;
#X text 10 186 website:;
#X obj 120 189 ui.link @title https://github.com/uliss/pure-data @url
https://github.com/uliss/pure-data;
#X obj 120 208 declare -lib ceammc -lib creammc;
#X obj 120 268 cnv 1 270 1 empty empty empty 17 7 0 10 -203890 -1 0;
#X text 120 268 generated by pddoc;
#X restore 10 790 pd info;
#X connect 12 0 15 0;
#X connect 14 0 15 0;
#X connect 17 0 18 0;
#X connect 11 0 15 0;
#X connect 13 0 15 0;
#X connect 18 0 19 0;
#X connect 9 0 15 0;
#X connect 20 0 21 0;
#X connect 19 0 20 0;
#X connect 7 0 15 0;
#X connect 8 0 15 0;
#X connect 15 0 16 0;
#X connect 10 0 15 0;
