#N canvas 0 0 715 555 12;
#X declare -lib ceammc -lib creammc;
#X obj 308 50 cnv 1 387 21 empty empty empty 17 7 0 10 -245760 -1 0;
#X text 308 50 split data flow by external side-chain predicate;
#X obj 1 1 cnv 5 712 40 empty empty flow.split 20 20 0 20 -104026
-4096 0;
#X obj 554 11 split;
#X obj 615 11 flow.split;
#X obj 205 80 cnv 1 490 61 empty empty empty 17 7 0 10 -257983 -1 0;
#X text 210 80 Predicate side chain should accept value and return 1
(true) or 0 (false). If true \, input value is outputed to first
outlet. Otherwise to second outlet.;
#X floatatom 50 169 5 0 0 0 - - -;
#X msg 270 169 1 2;
#X msg 328 169 2 1;
#X obj 50 198 flow.split;
#X obj 174 198 > 0;
#X obj 270 198 flow.split;
#X obj 395 198 <;
#X floatatom 50 227 5 0 0 0 - - -;
#X floatatom 88 227 5 0 0 0 - - -;
#X obj 270 227 msg set;
#X obj 366 227 msg set;
#X obj 50 256 bng 15 250 50 0 empty empty empty 17 7 0 10 -262144 -1
-1;
#X msg 270 256 ;
#X msg 366 256 ;
#X obj 50 285 flow.split;
#X obj 174 285 tgl 15 0 empty empty empty 17 7 0 10 -262144 -1 -1 0 1;
#X obj 50 313 bng 15 250 50 0 empty empty empty 17 7 0 10 -262144 -1
-1;
#X obj 88 313 bng 15 250 50 0 empty empty empty 17 7 0 10 -262144 -1
-1;
#X obj 20 350 cnv 1 685 1 empty empty empty 17 7 0 10 -203890 -1 0;
#X obj 20 355 cnv 5 64 26 empty empty inlets: 4 10 0 14 -262144 -49933
0;
#X text 120 360 1\.;
#X text 240 360 input value.;
#X text 120 378 2\.;
#X text 150 378 *float*;
#X text 240 378 input from predicate side chain. If 1 received -
output for first outlet. If 0 - to second..;
#X obj 20 420 cnv 1 685 1 empty empty empty 17 7 0 10 -203890 -1 0;
#X obj 20 425 cnv 5 73 26 empty empty outlets: 4 10 0 14 -262144
-49933 0;
#X text 120 430 1\.;
#X text 240 430 values for which predicate side-chain returned true;
#X text 120 448 2\.;
#X text 240 448 values for which predicate side-chain returned false;
#X text 120 466 3\.;
#X text 240 466 value to predicate side-chain;
#X obj 10 48 ui.link @title index @url index-help.pd;
#X text 51 45 ::;
#X obj 67 48 ui.link @title ceammc @url ceammc-help.pd;
#X text 115 45 ::;
#X obj 131 48 ui.link @title flow @url ceammc.flow-help.pd;
#X obj 1 514 cnv 5 712 48 empty empty empty 17 7 0 10 -203890 -1 0;
#X text 10 517 library: ceammc v0.3;
#X text 455 529 see also:;
#X obj 531 529 flow.pass;
#X obj 611 529 flow.reject;
#N canvas 10 536 400 290 info 0;
#X obj 1 1 cnv 1 107 287 empty empty empty 17 7 0 10 -183085 -1 0;
#X text 10 10 library:;
#X text 120 10 ceammc;
#X text 10 32 version:;
#X text 120 32 0.3;
#X text 10 54 object:;
#X text 120 54 flow.split;
#X text 10 76 category:;
#X text 120 76 flow;
#X text 10 98 since:;
#X text 120 98 0.3;
#X text 10 120 authors:;
#X text 120 120 Serge Poltavsky;
#X text 10 142 license:;
#X text 120 142 GPL3;
#X text 10 164 keywords:;
#X text 120 164 pass \, functional;
#X text 10 186 website:;
#X obj 120 189 ui.link @title https://github.com/uliss/pure-data @url
https://github.com/uliss/pure-data;
#X obj 120 208 declare -lib ceammc -lib creammc;
#X obj 120 268 cnv 1 270 1 empty empty empty 17 7 0 10 -203890 -1 0;
#X text 120 268 generated by pddoc;
#X restore 10 536 pd info;
#X connect 16 0 19 0;
#X connect 10 0 14 0;
#X connect 18 0 21 0;
#X connect 12 1 17 0;
#X connect 7 0 10 0;
#X connect 13 0 12 1;
#X connect 10 2 11 0;
#X connect 17 0 20 0;
#X connect 12 0 16 0;
#X connect 22 0 21 1;
#X connect 12 2 13 0;
#X connect 8 0 12 0;
#X connect 21 0 23 0;
#X connect 21 1 24 0;
#X connect 9 0 12 0;
#X connect 10 1 15 0;
#X connect 11 0 10 1;
#X connect 21 2 22 0;
