#N canvas 0 0 715 555 12;
#X declare -lib ceammc -lib creammc;
#X obj 499 50 cnv 1 196 21 empty empty empty 17 7 0 10 -245760 -1 0;
#X text 499 50 bus with only hot inlets;
#X obj 1 1 cnv 5 712 40 empty empty flow.sync 20 20 0 20 -104026 -4096
0;
#X obj 622 11 flow.sync;
#X obj 205 80 cnv 1 490 89 empty empty empty 17 7 0 10 -257983 -1 0;
#X text 210 80 Sync inlets data. All inlets are 'hot'. When float \,
symbol or list arrives to inlet \, it's value stored. Then output all
stored values from all inlets from rightmost to leftmost. The main
usage is to escape 'trigger hell' when using many UI controls.;
#X obj 50 197 hslider 128 15 0.0 127.0 0 0 empty empty empty 17 7 0 10
-262144 -1 -1 0 0;
#X obj 69 226 hslider 128 15 0.0 127.0 0 0 empty empty empty 17 7 0 10
-262144 -1 -1 0 0;
#X obj 98 255 hslider 128 15 0.0 127.0 0 0 empty empty empty 17 7 0 10
-262144 -1 -1 0 0;
#X obj 50 284 flow.sync 3;
#X obj 50 313 +;
#X obj 50 341 *;
#X floatatom 50 384 10 0 0 0 - - -;
#X obj 20 423 cnv 1 685 1 empty empty empty 17 7 0 10 -203890 -1 0;
#X obj 20 428 cnv 5 90 26 empty empty arguments: 4 10 0 14 -262144
-49933 0;
#X text 120 433 1\.;
#X text 150 433 int;
#X obj 241 434 cnv 1 17 18 empty empty empty 17 7 0 10 -245695 -1 0;
#X text 240 433 N: Number of input/outputs. Range: 1\...16;
#X obj 20 461 cnv 1 685 1 empty empty empty 17 7 0 10 -203890 -1 0;
#X obj 20 466 cnv 5 64 26 empty empty inlets: 4 10 0 14 -262144 -49933
0;
#X text 120 471 1\.;
#X text 240 471 first inlet.;
#X text 120 489 ....;
#X text 240 489 ....;
#X text 120 507 n.;
#X text 240 507 Nth inlet.;
#X obj 20 535 cnv 1 685 1 empty empty empty 17 7 0 10 -203890 -1 0;
#X obj 20 540 cnv 5 73 26 empty empty outlets: 4 10 0 14 -262144
-49933 0;
#X text 120 545 1\.;
#X text 240 545 first outlet;
#X text 120 563 ....;
#X text 240 563 ... outlet;
#X text 120 581 n.;
#X text 240 581 Nth outlet;
#X obj 10 48 ui.link @title index @url index-help.pd;
#X text 51 45 ::;
#X obj 67 48 ui.link @title ceammc @url ceammc-help.pd;
#X text 115 45 ::;
#X obj 131 48 ui.link @title flow @url ceammc.flow-help.pd;
#X obj 1 629 cnv 5 712 48 empty empty empty 17 7 0 10 -203890 -1 0;
#X text 10 632 library: ceammc v0.3;
#N canvas 10 651 400 290 info 0;
#X obj 1 1 cnv 1 107 287 empty empty empty 17 7 0 10 -183085 -1 0;
#X text 10 10 library:;
#X text 120 10 ceammc;
#X text 10 32 version:;
#X text 120 32 0.3;
#X text 10 54 object:;
#X text 120 54 flow.sync;
#X text 10 76 category:;
#X text 120 76 flow;
#X text 10 98 since:;
#X text 120 98 0.1;
#X text 10 120 authors:;
#X text 120 120 Serge Poltavsky;
#X text 10 142 license:;
#X text 120 142 GPL3;
#X text 10 164 keywords:;
#X text 120 164 flow \, control;
#X text 10 186 website:;
#X obj 120 189 ui.link @title https://github.com/uliss/pure-data @url
https://github.com/uliss/pure-data;
#X obj 120 208 declare -lib ceammc -lib creammc;
#X obj 120 268 cnv 1 270 1 empty empty empty 17 7 0 10 -203890 -1 0;
#X text 120 268 generated by pddoc;
#X restore 10 651 pd info;
#X connect 8 0 9 2;
#X connect 9 2 11 1;
#X connect 10 0 11 0;
#X connect 11 0 12 0;
#X connect 9 0 10 0;
#X connect 6 0 9 0;
#X connect 9 1 10 1;
#X connect 7 0 9 1;
