#N canvas 0 0 715 555 12;
#X declare -lib ceammc -lib creammc;
#X obj 411 50 cnv 1 284 21 empty empty empty 17 7 0 10 -245760 -1 0;
#X text 411 50 gain boost|cut below some frequency;
#X obj 1 1 cnv 5 712 40 empty empty flt.lowshelf~ 20 20 0 20 -104026
-4096 0;
#X obj 592 11 flt.lowshelf~;
#X obj 50 118 noise~;
#X obj 136 118 tgl 15 0 empty empty empty 17 7 0 10 -262144 -1 -1 0 1;
#X floatatom 203 118 5 0 0 0 - - -;
#X floatatom 318 118 5 0 0 0 - - -;
#X obj 50 147 *~;
#X obj 146 147 bng 15 250 50 0 empty empty empty 17 7 0 10 -262144 -1
-1;
#X msg 203 147 freq \$1;
#X msg 318 147 gain \$1;
#X obj 50 176 flt.lowshelf~ 200 10 id;
#X obj 50 205 dac~;
#X obj 270 205 print;
#X obj 20 244 cnv 1 685 1 empty empty empty 17 7 0 10 -203890 -1 0;
#X obj 20 249 cnv 5 90 26 empty empty arguments: 4 10 0 14 -262144
-49933 0;
#X text 120 254 1\.;
#X text 150 254 float;
#X obj 241 255 cnv 1 72 18 empty empty empty 17 7 0 10 -245695 -1 0;
#X text 240 254 freq(Hz): corner frequency for the shelf.;
#X text 120 272 2\.;
#X text 150 272 float;
#X obj 241 273 cnv 1 72 18 empty empty empty 17 7 0 10 -245695 -1 0;
#X text 240 272 gain(db): amount of boost or cut apply to the signal.;
#X text 120 290 3\.;
#X text 150 290 symbol;
#X obj 241 291 cnv 1 24 18 empty empty empty 17 7 0 10 -245695 -1 0;
#X text 240 290 ID: object ID for OSC control.;
#X obj 20 318 cnv 1 685 1 empty empty empty 17 7 0 10 -203890 -1 0;
#X obj 20 323 cnv 5 73 26 empty empty methods: 4 10 0 14 -262144
-49933 0;
#X msg 120 328 freq;
#X text 240 328 Arguments are:;
#X obj 250 356 cnv 1 22 21 empty empty empty 17 7 0 10 -245695 -1 0;
#X text 250 356 HZ: corner frequency for the shelf (e.g. \, 100 Hz).
Type: float.;
#X msg 120 398 gain;
#X text 240 398 Arguments are:;
#X obj 250 426 cnv 1 22 21 empty empty empty 17 7 0 10 -245695 -1 0;
#X text 250 426 DB: amount of boost or cut apply to the signal (e.g.
\, -10 db). Type: float.;
#X obj 20 478 cnv 1 685 1 empty empty empty 17 7 0 10 -203890 -1 0;
#X obj 20 483 cnv 5 64 26 empty empty inlets: 4 10 0 14 -262144 -49933
0;
#X text 120 488 1\.;
#X text 240 488 input signal.;
#X text 150 506 *bang*;
#X text 240 506 outputs object internal state to rightmost outlet.;
#X obj 20 534 cnv 1 685 1 empty empty empty 17 7 0 10 -203890 -1 0;
#X obj 20 539 cnv 5 73 26 empty empty outlets: 4 10 0 14 -262144
-49933 0;
#X text 120 544 1\.;
#X text 240 544 filtered signal;
#X text 120 562 2\.;
#X text 240 562 information output;
#X obj 10 48 ui.link @title index @url index-help.pd;
#X text 51 45 ::;
#X obj 67 48 ui.link @title ceammc @url ceammc-help.pd;
#X text 115 45 ::;
#X obj 131 48 ui.link @title flt @url ceammc.flt-help.pd;
#X obj 1 610 cnv 5 712 48 empty empty empty 17 7 0 10 -203890 -1 0;
#X text 10 613 library: ceammc v0.3;
#X text 388 625 see also:;
#X obj 464 625 flt.highshelf~;
#X obj 581 625 flt.c_lowshelf~;
#N canvas 10 632 400 290 info 0;
#X obj 1 1 cnv 1 107 287 empty empty empty 17 7 0 10 -183085 -1 0;
#X text 10 10 library:;
#X text 120 10 ceammc;
#X text 10 32 version:;
#X text 120 32 0.3;
#X text 10 54 object:;
#X text 120 54 flt.lowshelf~;
#X text 10 76 category:;
#X text 120 76 flt;
#X text 10 98 since:;
#X text 120 98 0.1;
#X text 10 120 authors:;
#X text 120 120 Alex Nadzharov \, Serge Poltavsky;
#X text 10 142 license:;
#X text 120 142 GPL3;
#X text 10 164 keywords:;
#X text 120 164 filter \, lowshelf;
#X text 10 186 website:;
#X obj 120 189 ui.link @title https://github.com/uliss/pure-data @url
https://github.com/uliss/pure-data;
#X obj 120 208 declare -lib ceammc -lib creammc;
#X obj 120 268 cnv 1 270 1 empty empty empty 17 7 0 10 -203890 -1 0;
#X text 120 268 generated by pddoc;
#X restore 10 632 pd info;
#X connect 9 0 12 0;
#X connect 10 0 12 0;
#X connect 5 0 8 1;
#X connect 4 0 8 0;
#X connect 11 0 12 0;
#X connect 8 0 12 0;
#X connect 12 0 13 0;
#X connect 12 0 13 1;
#X connect 12 1 14 0;
#X connect 7 0 11 0;
#X connect 6 0 10 0;
