#N canvas 0 0 715 555 12;
#X declare -lib ceammc -lib creammc;
#X obj 348 50 cnv 1 347 21 empty empty empty 17 7 0 10 -245760 -1 0;
#X text 348 50 Low-pass filter with 12/db per octave slope;
#X obj 1 1 cnv 5 712 40 empty empty flt.lpf12~ 20 20 0 20 -104026
-4096 0;
#X obj 614 11 flt.lpf12~;
#X obj 205 80 cnv 1 490 89 empty empty empty 17 7 0 10 -257983 -1 0;
#X text 210 80 A low-pass filter is a filter that passes signals with
a frequency lower than a certain cutoff frequency and attenuates
signals with frequencies higher than the cutoff frequency. A low-pass
filter is the complement of a high-pass filter.;
#X floatatom 50 197 5 0 0 0 - - -;
#X obj 203 212 tgl 15 0 empty empty empty 17 7 0 10 -262144 -1 -1 0 1;
#X obj 50 226 phasor~ 100;
#X obj 203 241 metro 200;
#X obj 78 255 tgl 15 0 empty empty empty 17 7 0 10 -262144 -1 -1 0 1;
#X obj 203 269 random.int 100 5000;
#X obj 50 284 *~;
#X floatatom 146 298 5 0 0 0 - - -;
#X floatatom 242 298 5 0 0 0 - - -;
#X obj 50 327 *~ 0.15;
#X msg 146 327 freq \$1;
#X msg 242 327 q \$1;
#X obj 50 356 flt.lpf12~ 4000 5;
#X obj 50 384 dyn.limit2~;
#X obj 50 413 dac~;
#X obj 20 452 cnv 1 685 1 empty empty empty 17 7 0 10 -203890 -1 0;
#X obj 20 457 cnv 5 90 26 empty empty arguments: 4 10 0 14 -262144
-49933 0;
#X text 120 462 1\.;
#X text 150 462 float;
#X obj 241 463 cnv 1 72 18 empty empty empty 17 7 0 10 -245695 -1 0;
#X text 240 462 freq(Hz): cutoff frequency.;
#X text 120 480 2\.;
#X text 150 480 float;
#X obj 241 481 cnv 1 16 18 empty empty empty 17 7 0 10 -245695 -1 0;
#X text 240 480 q: quality factory. Range: 0.01\...100;
#X text 120 498 3\.;
#X text 150 498 symbol;
#X obj 241 499 cnv 1 24 18 empty empty empty 17 7 0 10 -245695 -1 0;
#X text 240 498 ID: object ID for OSC control.;
#X obj 20 526 cnv 1 685 1 empty empty empty 17 7 0 10 -203890 -1 0;
#X obj 20 531 cnv 5 73 26 empty empty methods: 4 10 0 14 -262144
-49933 0;
#X msg 120 536 freq;
#X text 240 536 Arguments are:;
#X obj 250 564 cnv 1 22 21 empty empty empty 17 7 0 10 -245695 -1 0;
#X text 250 564 HZ: cutoff frequency. Type: float.;
#X msg 120 592 q;
#X text 240 592 Arguments are:;
#X obj 250 620 cnv 1 64 21 empty empty empty 17 7 0 10 -245695 -1 0;
#X text 250 620 [Q=0.01]: quality factor. Type: float. Range:
0.01\...100;
#X obj 20 658 cnv 1 685 1 empty empty empty 17 7 0 10 -203890 -1 0;
#X obj 20 663 cnv 5 64 26 empty empty inlets: 4 10 0 14 -262144 -49933
0;
#X text 120 668 1\.;
#X text 240 668 input signal.;
#X obj 20 696 cnv 1 685 1 empty empty empty 17 7 0 10 -203890 -1 0;
#X obj 20 701 cnv 5 73 26 empty empty outlets: 4 10 0 14 -262144
-49933 0;
#X text 120 706 1\.;
#X text 240 706 filtered signal;
#X text 120 724 2\.;
#X text 240 724 information output;
#X obj 10 48 ui.link @title index @url index-help.pd;
#X text 51 45 ::;
#X obj 67 48 ui.link @title ceammc @url ceammc-help.pd;
#X text 115 45 ::;
#X obj 131 48 ui.link @title flt @url ceammc.flt-help.pd;
#X obj 1 772 cnv 5 712 48 empty empty empty 17 7 0 10 -203890 -1 0;
#X text 10 775 library: ceammc v0.3;
#X text 365 787 see also:;
#X obj 441 787 flt.lpf24~;
#X obj 529 787 flt.hpf12~;
#X obj 617 787 flt.c_lpf~;
#N canvas 10 794 400 290 info 0;
#X obj 1 1 cnv 1 107 287 empty empty empty 17 7 0 10 -183085 -1 0;
#X text 10 10 library:;
#X text 120 10 ceammc;
#X text 10 32 version:;
#X text 120 32 0.3;
#X text 10 54 object:;
#X text 120 54 flt.lpf12~;
#X text 10 76 category:;
#X text 120 76 flt;
#X text 10 98 since:;
#X text 120 98 0.1;
#X text 10 120 authors:;
#X text 120 120 Alex Nadzharov \, Serge Poltavsky;
#X text 10 142 license:;
#X text 120 142 GPL3;
#X text 10 164 keywords:;
#X text 120 164 filter \, lowpass;
#X text 10 186 website:;
#X obj 120 189 ui.link @title https://github.com/uliss/pure-data @url
https://github.com/uliss/pure-data;
#X obj 120 208 declare -lib ceammc -lib creammc;
#X obj 120 268 cnv 1 270 1 empty empty empty 17 7 0 10 -203890 -1 0;
#X text 120 268 generated by pddoc;
#X restore 10 794 pd info;
#X connect 12 0 15 0;
#X connect 18 0 19 0;
#X connect 18 0 19 1;
#X connect 17 0 18 0;
#X connect 19 1 20 1;
#X connect 15 0 18 0;
#X connect 14 0 17 0;
#X connect 19 0 20 0;
#X connect 8 0 12 0;
#X connect 13 0 16 0;
#X connect 11 0 16 0;
#X connect 10 0 12 1;
#X connect 6 0 8 0;
#X connect 9 0 11 0;
#X connect 16 0 18 0;
#X connect 7 0 9 0;
