#N canvas 0 0 715 555 12;
#X declare -lib ceammc -lib creammc;
#X obj 347 50 cnv 1 348 21 empty empty empty 17 7 0 10 -245760 -1 0;
#X text 347 50 HPF coefficent calculator for biquad filter;
#X obj 1 1 cnv 5 712 40 empty empty flt.c_hpf~ 20 20 0 20 -104026
-4096 0;
#X obj 614 11 flt.c_hpf~;
#X obj 50 133 noise.pink~;
#X obj 184 133 tgl 15 0 empty empty empty 17 7 0 10 -262144 -1 -1 0 1;
#X floatatom 222 133 5 0 0 0 - - -;
#X floatatom 318 133 5 0 0 0 - - -;
#X obj 50 162 *~;
#X msg 222 162 freq \$1;
#X msg 318 162 q \$1;
#X obj 222 190 flt.c_hpf~ 5000 60;
#X obj 50 262 flt.biquad~;
#X obj 50 291 dac~;
#X obj 20 315 cnv 1 685 1 empty empty empty 17 7 0 10 -203890 -1 0;
#X obj 20 320 cnv 5 90 26 empty empty arguments: 4 10 0 14 -262144
-49933 0;
#X text 120 325 1\.;
#X text 150 325 float;
#X obj 241 326 cnv 1 72 18 empty empty empty 17 7 0 10 -245695 -1 0;
#X text 240 325 freq(Hz): center frequency.;
#X text 120 343 2\.;
#X text 150 343 float;
#X obj 241 344 cnv 1 16 18 empty empty empty 17 7 0 10 -245695 -1 0;
#X text 240 343 q: quality factory. Range: 0.01\...100;
#X text 120 361 3\.;
#X text 150 361 symbol;
#X obj 241 362 cnv 1 24 18 empty empty empty 17 7 0 10 -245695 -1 0;
#X text 240 361 ID: object ID for OSC control.;
#X obj 20 389 cnv 1 685 1 empty empty empty 17 7 0 10 -203890 -1 0;
#X obj 20 394 cnv 5 73 26 empty empty methods: 4 10 0 14 -262144
-49933 0;
#X msg 120 399 freq;
#X text 240 399 Arguments are:;
#X obj 250 427 cnv 1 22 21 empty empty empty 17 7 0 10 -245695 -1 0;
#X text 250 427 HZ: center frequency. Type: float.;
#X msg 120 455 q;
#X text 240 455 Arguments are:;
#X obj 250 483 cnv 1 40 21 empty empty empty 17 7 0 10 -245695 -1 0;
#X text 250 483 [Q=1]: quality factor. Type: float. Range:
0.01\...100;
#X obj 20 521 cnv 1 685 1 empty empty empty 17 7 0 10 -203890 -1 0;
#X obj 20 526 cnv 5 64 26 empty empty inlets: 4 10 0 14 -262144 -49933
0;
#X text 120 531 1\.;
#X text 240 531 input signal.;
#X obj 20 559 cnv 1 685 1 empty empty empty 17 7 0 10 -203890 -1 0;
#X obj 20 564 cnv 5 73 26 empty empty outlets: 4 10 0 14 -262144
-49933 0;
#X text 120 569 1\.;
#X text 240 569 b0;
#X text 120 587 2\.;
#X text 240 587 b1;
#X text 120 605 3\.;
#X text 240 605 b2;
#X text 120 623 4\.;
#X text 240 623 a1;
#X text 120 641 5\.;
#X text 240 641 a2;
#X text 120 659 6\.;
#X text 240 659 information output;
#X obj 10 48 ui.link @title index @url index-help.pd;
#X text 51 45 ::;
#X obj 67 48 ui.link @title ceammc @url ceammc-help.pd;
#X text 115 45 ::;
#X obj 131 48 ui.link @title flt @url ceammc.flt-help.pd;
#X obj 1 707 cnv 5 712 48 empty empty empty 17 7 0 10 -203890 -1 0;
#X text 10 710 library: ceammc v0.3;
#X text 446 722 see also:;
#X obj 522 722 flt.biquad~;
#X obj 617 722 flt.hpf12~;
#N canvas 10 729 400 290 info 0;
#X obj 1 1 cnv 1 107 287 empty empty empty 17 7 0 10 -183085 -1 0;
#X text 10 10 library:;
#X text 120 10 ceammc;
#X text 10 32 version:;
#X text 120 32 0.3;
#X text 10 54 object:;
#X text 120 54 flt.c_hpf~;
#X text 10 76 category:;
#X text 120 76 flt;
#X text 10 98 since:;
#X text 120 98 0.1;
#X text 10 120 authors:;
#X text 120 120 Alex Nadzharov \, Serge Poltavsky;
#X text 10 142 license:;
#X text 120 142 GPL3;
#X text 10 164 keywords:;
#X text 120 164 filter \, biquad \, highpass;
#X text 10 186 website:;
#X obj 120 189 ui.link @title https://github.com/uliss/pure-data @url
https://github.com/uliss/pure-data;
#X obj 120 208 declare -lib ceammc -lib creammc;
#X obj 120 268 cnv 1 270 1 empty empty empty 17 7 0 10 -203890 -1 0;
#X text 120 268 generated by pddoc;
#X restore 10 729 pd info;
#X connect 9 0 11 0;
#X connect 7 0 10 0;
#X connect 11 1 12 2;
#X connect 5 0 8 1;
#X connect 11 2 12 3;
#X connect 10 0 11 0;
#X connect 4 0 8 0;
#X connect 6 0 9 0;
#X connect 11 0 12 1;
#X connect 12 0 13 0;
#X connect 12 0 13 1;
#X connect 11 3 12 4;
#X connect 11 4 12 5;
#X connect 8 0 12 0;
