#N canvas 0 0 715 555 12;
#X declare -lib ceammc -lib creammc;
#X obj 221 50 cnv 1 474 49 empty empty empty 17 7 0 10 -245760 -1 0;
#X text 221 50 second order "peaking equalizer" section (gain boost or
cut near some frequency). Also called a "parametric equalizer"
section.;
#X obj 1 1 cnv 5 712 40 empty empty flt.eq_peak~ 20 20 0 20 -104026
-4096 0;
#X obj 600 11 flt.eq_peak~;
#X obj 50 118 noise~;
#X obj 136 118 tgl 15 0 empty empty empty 17 7 0 10 -262144 -1 -1 0 1;
#X obj 50 147 *~;
#X floatatom 184 147 5 0 0 0 - - -;
#X floatatom 280 147 5 0 0 0 - - -;
#X floatatom 376 147 5 0 0 0 - - -;
#X obj 50 176 *~ 0.1;
#X obj 146 176 bng 15 250 50 0 empty empty empty 17 7 0 10 -262144 -1
-1;
#X msg 184 176 freq \$1;
#X msg 280 176 gain \$1;
#X msg 376 176 bandwidth \$1;
#X obj 50 205 flt.eq_peak~ 3000 20 400 id;
#X obj 50 234 dac~;
#X obj 270 234 print;
#X obj 20 273 cnv 1 685 1 empty empty empty 17 7 0 10 -203890 -1 0;
#X obj 20 278 cnv 5 90 26 empty empty arguments: 4 10 0 14 -262144
-49933 0;
#X text 120 283 1\.;
#X text 150 283 float;
#X obj 241 284 cnv 1 72 18 empty empty empty 17 7 0 10 -245695 -1 0;
#X text 240 283 freq(Hz): peak frequency.;
#X text 120 301 2\.;
#X text 150 301 float;
#X obj 241 302 cnv 1 72 18 empty empty empty 17 7 0 10 -245695 -1 0;
#X text 240 301 gain(db): level at fx (boost if >0 or cut if <0).;
#X text 120 319 3\.;
#X text 150 319 float;
#X obj 241 320 cnv 1 111 18 empty empty empty 17 7 0 10 -245695 -1 0;
#X text 240 319 bandwidth(Hz): bandwidth of peak.;
#X text 120 337 4\.;
#X text 150 337 symbol;
#X obj 241 338 cnv 1 24 18 empty empty empty 17 7 0 10 -245695 -1 0;
#X text 240 337 ID: object ID for OSC control.;
#X obj 20 365 cnv 1 685 1 empty empty empty 17 7 0 10 -203890 -1 0;
#X obj 20 370 cnv 5 73 26 empty empty methods: 4 10 0 14 -262144
-49933 0;
#X msg 120 375 freq;
#X text 240 375 Arguments are:;
#X obj 250 403 cnv 1 22 21 empty empty empty 17 7 0 10 -245695 -1 0;
#X text 250 403 HZ: peak frequency. Type: float.;
#X msg 120 431 gain;
#X text 240 431 Arguments are:;
#X obj 250 459 cnv 1 22 21 empty empty empty 17 7 0 10 -245695 -1 0;
#X text 250 459 DB: level at fx (boost if >0 or cut if <0). Type:
float.;
#X msg 120 487 bandwidth;
#X text 240 487 Arguments are:;
#X obj 250 515 cnv 1 22 21 empty empty empty 17 7 0 10 -245695 -1 0;
#X text 250 515 HZ: bandwidth of peak. Type: float.;
#X obj 20 553 cnv 1 685 1 empty empty empty 17 7 0 10 -203890 -1 0;
#X obj 20 558 cnv 5 64 26 empty empty inlets: 4 10 0 14 -262144 -49933
0;
#X text 120 563 1\.;
#X text 240 563 input signal.;
#X text 150 581 *bang*;
#X text 240 581 outputs object internal state to rightmost outlet.;
#X obj 20 609 cnv 1 685 1 empty empty empty 17 7 0 10 -203890 -1 0;
#X obj 20 614 cnv 5 73 26 empty empty outlets: 4 10 0 14 -262144
-49933 0;
#X text 120 619 1\.;
#X text 240 619 filtered signal;
#X text 120 637 2\.;
#X text 240 637 information output;
#X obj 10 48 ui.link @title index @url index-help.pd;
#X text 51 45 ::;
#X obj 67 48 ui.link @title ceammc @url ceammc-help.pd;
#X text 115 45 ::;
#X obj 131 48 ui.link @title flt @url ceammc.flt-help.pd;
#X obj 1 685 cnv 5 712 48 empty empty empty 17 7 0 10 -203890 -1 0;
#X text 10 688 library: ceammc v0.3;
#X text 402 700 see also:;
#X obj 478 700 flt.lowshelf~;
#X obj 588 700 flt.highshelf~;
#N canvas 10 707 400 290 info 0;
#X obj 1 1 cnv 1 107 287 empty empty empty 17 7 0 10 -183085 -1 0;
#X text 10 10 library:;
#X text 120 10 ceammc;
#X text 10 32 version:;
#X text 120 32 0.3;
#X text 10 54 object:;
#X text 120 54 flt.eq_peak~;
#X text 10 76 category:;
#X text 120 76 flt;
#X text 10 98 since:;
#X text 120 98 0.1;
#X text 10 120 authors:;
#X text 120 120 Alex Nadzharov \, Serge Poltavsky;
#X text 10 142 license:;
#X text 120 142 GPL3;
#X text 10 164 keywords:;
#X text 120 164 filter \, equalizer;
#X text 10 186 website:;
#X obj 120 189 ui.link @title https://github.com/uliss/pure-data @url
https://github.com/uliss/pure-data;
#X obj 120 208 declare -lib ceammc -lib creammc;
#X obj 120 268 cnv 1 270 1 empty empty empty 17 7 0 10 -203890 -1 0;
#X text 120 268 generated by pddoc;
#X restore 10 707 pd info;
#X connect 12 0 15 0;
#X connect 9 0 14 0;
#X connect 15 1 17 0;
#X connect 11 0 15 0;
#X connect 4 0 6 0;
#X connect 13 0 15 0;
#X connect 14 0 15 0;
#X connect 6 0 10 0;
#X connect 8 0 13 0;
#X connect 5 0 6 1;
#X connect 7 0 12 0;
#X connect 15 0 16 0;
#X connect 15 0 16 1;
#X connect 10 0 15 0;
