#N canvas 0 0 715 555 12;
#X declare -lib ceammc -lib creammc;
#X obj 531 50 cnv 1 164 21 empty empty empty 17 7 0 10 -245760 -1 0;
#X text 531 50 mono flanging effect;
#X obj 1 1 cnv 5 712 40 empty empty fx.flanger~ 20 20 0 20 -104026
-4096 0;
#X obj 607 11 fx.flanger~;
#X floatatom 50 118 5 0 0 0 - - -;
#X obj 50 147 osc.saw~ 200;
#X obj 78 176 tgl 15 0 empty empty empty 17 7 0 10 -262144 -1 -1 0 1;
#X floatatom 117 176 5 0 0 0 - - -;
#X floatatom 222 176 5 0 0 0 - - -;
#X floatatom 328 176 5 0 0 0 - - -;
#X obj 462 176 tgl 15 0 empty empty empty 17 7 0 10 -262144 -1 -1 0 1;
#X obj 50 205 *~;
#X msg 117 205 speed \$1;
#X msg 222 205 delay \$1;
#X msg 328 205 offset \$1;
#X msg 462 205 bypass \$1;
#X obj 347 234 tgl 15 0 empty empty empty 17 7 0 10 -262144 -1 -1 0 1;
#X floatatom 482 234 5 0 0 0 - - -;
#X msg 347 262 invert \$1;
#X msg 482 262 feedback \$1;
#X obj 50 291 fx.flanger~ id;
#X obj 50 320 *~ 0.1;
#X obj 50 349 dac~;
#X obj 20 388 cnv 1 685 1 empty empty empty 17 7 0 10 -203890 -1 0;
#X obj 20 393 cnv 5 90 26 empty empty arguments: 4 10 0 14 -262144
-49933 0;
#X text 120 398 1\.;
#X text 150 398 symbol;
#X obj 241 399 cnv 1 24 18 empty empty empty 17 7 0 10 -245695 -1 0;
#X text 240 398 ID: object ID for OSC control path.;
#X obj 20 426 cnv 1 685 1 empty empty empty 17 7 0 10 -203890 -1 0;
#X obj 20 431 cnv 5 98 26 empty empty properties: 4 10 0 14 -262144
-49933 0;
#X msg 120 436 @delay;
#X text 240 436 Get/Set flange delay. Type: float. Units: ms. Default
value: 10\. Value range: 0-20;
#X msg 120 473 @offset;
#X text 240 473 Get/Set flange delay offset. Type: float. Units: ms.
Default value: 1\. Value range: 0-20;
#X msg 120 510 @speed;
#X text 240 510 Get/Set flanger frequency. Type: float. Units: Hz.
Default value: 0.5\. Value range: 0-10;
#X msg 120 547 @feedback;
#X text 240 547 Get/Set feedback gain. Type: float. Default value: 0\.
Value range: 0-1;
#X msg 120 584 @invert;
#X text 240 584 Get/Set 0 for normal \, 1 to invert sign of flanging
sum. Type: int. Default value: 0\. Allowed values: 0 \, 1;
#X msg 120 621 @drywet;
#X text 240 621 Get/Set proportion of mix between the original (dry)
and 'effected' (wet) signals. 0 - dry signal \, 1 - wet. Type: float.
Default value: 1\. Value range: 0-1;
#X msg 120 672 @bypass;
#X text 240 672 Get/Set if set to 1 - bypass 'effected' signal. Type:
int. Default value: 0\. Allowed values: 0 \, 1;
#X obj 20 719 cnv 1 685 1 empty empty empty 17 7 0 10 -203890 -1 0;
#X obj 20 724 cnv 5 73 26 empty empty methods: 4 10 0 14 -262144
-49933 0;
#X msg 120 729 delay;
#X text 240 729 set flange delay. Arguments are:;
#X obj 250 757 cnv 1 22 21 empty empty empty 17 7 0 10 -245695 -1 0;
#X text 250 757 MS. Type: float. Range: 0\...20;
#X msg 120 785 offset;
#X text 240 785 set flange delay offset. Arguments are:;
#X obj 250 813 cnv 1 22 21 empty empty empty 17 7 0 10 -245695 -1 0;
#X text 250 813 MS. Type: float. Range: 0\...20;
#X msg 120 841 speed;
#X text 240 841 set flanger frequency. Arguments are:;
#X obj 250 869 cnv 1 22 21 empty empty empty 17 7 0 10 -245695 -1 0;
#X text 250 869 HZ. Type: float. Range: 0\...10;
#X msg 120 897 feedback;
#X text 240 897 set feedback gain. Arguments are:;
#X obj 250 925 cnv 1 15 21 empty empty empty 17 7 0 10 -245695 -1 0;
#X text 250 925 X. Type: float. Range: 0\...1;
#X msg 120 953 invert;
#X text 240 953 set sign of flanging sum. Arguments are:;
#X obj 250 981 cnv 1 15 21 empty empty empty 17 7 0 10 -245695 -1 0;
#X text 250 981 X: 0 for normal \, 1 to invert sign of flanging sum.
Type: int. Allowed values: 0 \, 1\.;
#X msg 120 1023 drywet;
#X text 240 1023 set proportion of mix between the original (dry) and
'effected' (wet) signals. Arguments are:;
#X obj 250 1065 cnv 1 15 21 empty empty empty 17 7 0 10 -245695 -1 0;
#X text 250 1065 X: 0 - dry signal \, 1 - wet. Type: float. Range:
0\...1;
#X msg 120 1093 bypass;
#X text 240 1093 bypass effect. Arguments are:;
#X obj 250 1121 cnv 1 15 21 empty empty empty 17 7 0 10 -245695 -1 0;
#X text 250 1121 X: if set to 1 - bypass 'effected' signal. Type: int.
Allowed values: 0 \, 1\.;
#X obj 20 1173 cnv 1 685 1 empty empty empty 17 7 0 10 -203890 -1 0;
#X obj 20 1178 cnv 5 64 26 empty empty inlets: 4 10 0 14 -262144
-49933 0;
#X text 120 1183 1\.;
#X text 240 1183 input signal.;
#X obj 20 1211 cnv 1 685 1 empty empty empty 17 7 0 10 -203890 -1 0;
#X obj 20 1216 cnv 5 73 26 empty empty outlets: 4 10 0 14 -262144
-49933 0;
#X text 120 1221 1\.;
#X text 240 1221 output signal;
#X text 120 1239 2\.;
#X text 240 1239 information output;
#X obj 10 48 ui.link @title index @url index-help.pd;
#X text 51 45 ::;
#X obj 67 48 ui.link @title ceammc @url ceammc-help.pd;
#X text 115 45 ::;
#X obj 131 48 ui.link @title fx @url ceammc.fx-help.pd;
#X obj 1 1287 cnv 5 712 48 empty empty empty 17 7 0 10 -203890 -1 0;
#X text 10 1290 library: ceammc v0.3;
#N canvas 10 1309 400 290 info 0;
#X obj 1 1 cnv 1 107 287 empty empty empty 17 7 0 10 -183085 -1 0;
#X text 10 10 library:;
#X text 120 10 ceammc;
#X text 10 32 version:;
#X text 120 32 0.3;
#X text 10 54 object:;
#X text 120 54 fx.flanger~;
#X text 10 76 category:;
#X text 120 76 fx;
#X text 10 98 since:;
#X text 120 98 0.2;
#X text 10 120 authors:;
#X text 120 120 Serge Poltavsky;
#X text 10 142 license:;
#X text 120 142 GPL3;
#X text 10 164 keywords:;
#X text 120 164 fx \, flanger;
#X text 10 186 website:;
#X obj 120 189 ui.link @title https://github.com/uliss/pure-data @url
https://github.com/uliss/pure-data;
#X obj 120 208 declare -lib ceammc -lib creammc;
#X obj 120 268 cnv 1 270 1 empty empty empty 17 7 0 10 -203890 -1 0;
#X text 120 268 generated by pddoc;
#X restore 10 1309 pd info;
#X connect 13 0 20 0;
#X connect 9 0 14 0;
#X connect 14 0 20 0;
#X connect 12 0 20 0;
#X connect 18 0 20 0;
#X connect 21 0 22 0;
#X connect 21 0 22 1;
#X connect 5 0 11 0;
#X connect 8 0 13 0;
#X connect 17 0 19 0;
#X connect 20 0 21 0;
#X connect 19 0 20 0;
#X connect 7 0 12 0;
#X connect 15 0 20 0;
#X connect 6 0 11 1;
#X connect 4 0 5 0;
#X connect 11 0 20 0;
#X connect 16 0 18 0;
#X connect 10 0 15 0;
