#N canvas 0 0 685 555 12;
#X obj 544 50 cnv 1 121 21 empty empty empty 17 7 0 10 -245760 -1 0;
#X text 544 50 soft signal clip;
#X obj 1 1 cnv 5 682 40 empty empty fx.softclip~ 20 20 0 20 -104026
-4096 0;
#X obj 573 11 fx.softclip~;
#X obj 50 118 osc~ 220;
#X floatatom 155 118 5 0 0 0 - - -;
#X obj 280 118 osc~ 220;
#X floatatom 386 118 5 0 0 0 - - -;
#X obj 50 147 *~;
#X obj 280 147 *~;
#X obj 50 176 fx.softclip~;
#X obj 280 176 clip~ -1 1;
#X obj 78 190 tgl 15 0 empty empty empty 17 7 0 10 -262144 -1 -1 0 1;
#X obj 309 190 tgl 15 0 empty empty empty 17 7 0 10 -262144 -1 -1 0 1;
#X obj 50 219 *~;
#X obj 280 219 *~;
#X obj 50 248 dac~;
#X obj 280 248 dac~;
#X obj 20 287 cnv 1 661 1 empty empty empty 17 7 0 10 -203890 -1 0;
#X obj 20 292 cnv 5 54 16 empty empty inlets: 0 14 0 14 -262144 -49933
0;
#X text 125 297 1\.;
#X text 230 297 input signal;
#X obj 20 325 cnv 1 661 1 empty empty empty 17 7 0 10 -203890 -1 0;
#X obj 20 330 cnv 5 63 16 empty empty outlets: 0 14 0 14 -262144
-49933 0;
#X text 125 335 1\.;
#X text 230 335 output signal;
#X obj 10 45 pddp/pddplink index-help.pd -text index;
#X text 51 45 ::;
#X obj 67 45 pddp/pddplink ceammc-help.pd -text ceammc;
#X text 115 45 ::;
#X obj 131 45 pddp/pddplink ceammc.fx-help.pd -text fx;
#X obj 1 505 cnv 5 682 48 empty empty empty 17 7 0 10 -203890 -1 0;
#X text 10 508 library: ceammc v0\.1;
#N canvas 10 527 400 250 info 0;
#X obj 1 1 cnv 1 107 247 empty empty empty 17 7 0 10 -183085 -1 0;
#X text 10 10 library:;
#X text 120 10 ceammc;
#X text 10 32 version:;
#X text 120 32 0\.1;
#X text 10 54 object:;
#X text 120 54 fx\.softclip~;
#X text 10 76 category:;
#X text 120 76 fx;
#X text 10 98 since:;
#X text 120 98 0\.1;
#X text 10 120 authors:;
#X text 120 120 Alex Nadzharov;
#X text 10 142 license:;
#X text 120 142 GPL3;
#X text 10 164 keywords:;
#X text 120 164 fx \, clip \, limiter;
#X text 10 186 website:;
#X obj 120 186 pddp/pddplink https://github.com/uliss/pure-data -text
https://github.com/uliss/pure-data;
#X obj 120 228 cnv 1 270 1 empty empty empty 17 7 0 10 -203890 -1 0;
#X text 120 228 generated by pddoc;
#X restore 10 527 pd info;
#X connect 9 0 11 0;
#X connect 11 0 15 0;
#X connect 15 0 17 1;
#X connect 15 0 17 0;
#X connect 5 0 8 1;
#X connect 4 0 8 0;
#X connect 8 0 10 0;
#X connect 13 0 15 1;
#X connect 10 0 14 0;
#X connect 14 0 16 1;
#X connect 14 0 16 0;
#X connect 6 0 9 0;
#X connect 12 0 14 1;
#X connect 7 0 9 1;
