#N canvas 0 0 715 555 12;
#X declare -lib ceammc -lib creammc;
#X obj 452 50 cnv 1 243 21 empty empty empty 17 7 0 10 -245760 -1 0;
#X text 452 50 checks if input number is even;
#X obj 1 1 cnv 5 712 40 empty empty is_even 20 20 0 20 -104026 -4096
0;
#X obj 637 11 is_even;
#X floatatom 50 118 5 0 0 0 - - -;
#X obj 50 147 is_even;
#X obj 50 176 tgl 15 0 empty empty empty 17 7 0 10 -262144 -1 -1 0 1;
#X floatatom 98 176 5 0 0 0 - - -;
#X obj 20 215 cnv 1 685 1 empty empty empty 17 7 0 10 -203890 -1 0;
#X obj 20 220 cnv 5 64 26 empty empty inlets: 4 10 0 14 -262144 -49933
0;
#X text 120 225 1\.;
#X text 150 225 *int*;
#X text 240 225 outputs '1' if number can be divided exactly by 2 \,
otherwise '0'.;
#X text 150 257 *float*;
#X text 240 257 first value converted to integer \, then the check is
performed.;
#X obj 20 299 cnv 1 685 1 empty empty empty 17 7 0 10 -203890 -1 0;
#X obj 20 304 cnv 5 73 26 empty empty outlets: 4 10 0 14 -262144
-49933 0;
#X text 120 309 1\.;
#X text 240 309 0 or 1;
#X text 120 327 2\.;
#X text 240 327 passed even numbers;
#X obj 10 48 ui.link @title index @url index-help.pd;
#X text 51 45 ::;
#X obj 67 48 ui.link @title ceammc @url ceammc-help.pd;
#X text 115 45 ::;
#X obj 131 48 ui.link @title predicates @url ceammc.predicates-
help.pd;
#X obj 1 505 cnv 5 712 48 empty empty empty 17 7 0 10 -203890 -1 0;
#X text 10 508 library: ceammc v0.3;
#X text 571 520 see also:;
#X obj 647 520 is_odd;
#N canvas 10 527 400 290 info 0;
#X obj 1 1 cnv 1 107 287 empty empty empty 17 7 0 10 -183085 -1 0;
#X text 10 10 library:;
#X text 120 10 ceammc;
#X text 10 32 version:;
#X text 120 32 0.3;
#X text 10 54 object:;
#X text 120 54 is_even;
#X text 10 76 category:;
#X text 120 76 predicates;
#X text 10 98 since:;
#X text 120 98 0.1;
#X text 10 120 authors:;
#X text 120 120 Serge Poltavsky;
#X text 10 142 license:;
#X text 120 142 GPL3;
#X text 10 164 keywords:;
#X text 120 164 predicate \, numbers;
#X text 10 186 website:;
#X obj 120 189 ui.link @title https://github.com/uliss/pure-data @url
https://github.com/uliss/pure-data;
#X obj 120 208 declare -lib ceammc -lib creammc;
#X obj 120 268 cnv 1 270 1 empty empty empty 17 7 0 10 -203890 -1 0;
#X text 120 268 generated by pddoc;
#X restore 10 527 pd info;
#X connect 4 0 5 0;
#X connect 5 1 7 0;
#X connect 5 0 6 0;
