#N canvas 0 0 715 555 12;
#X declare -lib ceammc -lib creammc;
#X obj 403 50 cnv 1 292 21 empty empty empty 17 7 0 10 -245760 -1 0;
#X text 403 50 checks if file exists and accessible;
#X obj 1 1 cnv 5 712 40 empty empty is_file 20 20 0 20 -104026 -4096
0;
#X obj 636 11 is_file;
#X obj 205 80 cnv 1 490 47 empty empty empty 17 7 0 10 -257983 -1 0;
#X text 210 80 If relative path is given file searched under patch
directory;
#X msg 50 155 symbol is_file-help.pd;
#X msg 88 184 symbol not-exists;
#X obj 50 213 is_file;
#X obj 50 242 tgl 15 0 empty empty empty 17 7 0 10 -262144 -1 -1 0 1;
#X obj 20 279 cnv 1 685 1 empty empty empty 17 7 0 10 -203890 -1 0;
#X obj 20 284 cnv 5 64 26 empty empty inlets: 4 10 0 14 -262144 -49933
0;
#X text 120 289 1\.;
#X text 150 289 *symbol*;
#X text 240 289 outputs '1' if file exists and can be opened \,
otherwise '0'.;
#X obj 20 331 cnv 1 685 1 empty empty empty 17 7 0 10 -203890 -1 0;
#X obj 20 336 cnv 5 73 26 empty empty outlets: 4 10 0 14 -262144
-49933 0;
#X text 120 341 1\.;
#X text 240 341 0 or 1;
#X obj 10 48 ui.link @title index @url index-help.pd;
#X text 51 45 ::;
#X obj 67 48 ui.link @title ceammc @url ceammc-help.pd;
#X text 115 45 ::;
#X obj 131 48 ui.link @title predicates @url ceammc.predicates-
help.pd;
#X obj 1 505 cnv 5 712 48 empty empty empty 17 7 0 10 -203890 -1 0;
#X text 10 508 library: ceammc v0.3;
#N canvas 10 527 400 290 info 0;
#X obj 1 1 cnv 1 107 287 empty empty empty 17 7 0 10 -183085 -1 0;
#X text 10 10 library:;
#X text 120 10 ceammc;
#X text 10 32 version:;
#X text 120 32 0.3;
#X text 10 54 object:;
#X text 120 54 is_file;
#X text 10 76 category:;
#X text 120 76 predicates;
#X text 10 98 since:;
#X text 120 98 0.2;
#X text 10 120 authors:;
#X text 120 120 Serge Poltavsky;
#X text 10 142 license:;
#X text 120 142 GPL3;
#X text 10 164 keywords:;
#X text 120 164 predicate \, filesystem;
#X text 10 186 website:;
#X obj 120 189 ui.link @title https://github.com/uliss/pure-data @url
https://github.com/uliss/pure-data;
#X obj 120 208 declare -lib ceammc -lib creammc;
#X obj 120 268 cnv 1 270 1 empty empty empty 17 7 0 10 -203890 -1 0;
#X text 120 268 generated by pddoc;
#X restore 10 527 pd info;
#X connect 6 0 8 0;
#X connect 7 0 8 0;
#X connect 8 0 9 0;
