#N canvas 0 0 715 555 12;
#X declare -lib ceammc -lib creammc;
#X obj 380 50 cnv 1 315 21 empty empty empty 17 7 0 10 -245760 -1 0;
#X text 380 50 checks if input data has *pointer* type;
#X obj 1 1 cnv 5 712 40 empty empty is_pointer 20 20 0 20 -104026
-4096 0;
#X obj 615 11 is_pointer;
#X msg 50 118 traverse pd-pointer \, bang;
#N canvas 357 118 200 100 pointer 0;
#X restore 357 118 pd pointer;
#X obj 50 147 pointer;
#X msg 146 147 bang;
#X msg 213 147 1;
#X msg 251 147 1 2;
#X obj 50 176 is_pointer;
#X obj 50 205 tgl 15 0 empty empty empty 17 7 0 10 -262144 -1 -1 0 1;
#X obj 126 205 print passed;
#X obj 20 244 cnv 1 685 1 empty empty empty 17 7 0 10 -203890 -1 0;
#X obj 20 249 cnv 5 64 26 empty empty inlets: 4 10 0 14 -262144 -49933
0;
#X text 120 254 1\.;
#X text 150 254 *pointer*;
#X text 240 254 outputs '1' to 1st outlet \, otherwise '0'.;
#X obj 20 282 cnv 1 685 1 empty empty empty 17 7 0 10 -203890 -1 0;
#X obj 20 287 cnv 5 73 26 empty empty outlets: 4 10 0 14 -262144
-49933 0;
#X text 120 292 1\.;
#X text 240 292 0 or 1;
#X text 120 310 2\.;
#X text 240 310 passes *pointer* message;
#X obj 10 48 ui.link @title index @url index-help.pd;
#X text 51 45 ::;
#X obj 67 48 ui.link @title ceammc @url ceammc-help.pd;
#X text 115 45 ::;
#X obj 131 48 ui.link @title predicates @url ceammc.predicates-
help.pd;
#X obj 1 505 cnv 5 712 48 empty empty empty 17 7 0 10 -203890 -1 0;
#X text 10 508 library: ceammc v0.3;
#X text 354 520 see also:;
#X obj 430 520 is_any;
#X obj 488 520 is_float;
#X obj 560 520 is_symbol;
#X obj 640 520 is_list;
#N canvas 10 527 400 290 info 0;
#X obj 1 1 cnv 1 107 287 empty empty empty 17 7 0 10 -183085 -1 0;
#X text 10 10 library:;
#X text 120 10 ceammc;
#X text 10 32 version:;
#X text 120 32 0.3;
#X text 10 54 object:;
#X text 120 54 is_pointer;
#X text 10 76 category:;
#X text 120 76 predicates;
#X text 10 98 since:;
#X text 120 98 0.1;
#X text 10 120 authors:;
#X text 120 120 Serge Poltavsky;
#X text 10 142 license:;
#X text 120 142 GPL3;
#X text 10 164 keywords:;
#X text 120 164 predicate \, pointer;
#X text 10 186 website:;
#X obj 120 189 ui.link @title https://github.com/uliss/pure-data @url
https://github.com/uliss/pure-data;
#X obj 120 208 declare -lib ceammc -lib creammc;
#X obj 120 268 cnv 1 270 1 empty empty empty 17 7 0 10 -203890 -1 0;
#X text 120 268 generated by pddoc;
#X restore 10 527 pd info;
#X connect 10 1 12 0;
#X connect 7 0 10 0;
#X connect 4 0 6 0;
#X connect 8 0 10 0;
#X connect 10 0 11 0;
#X connect 9 0 10 0;
#X connect 6 0 10 0;
