#N canvas 0 0 715 555 12;
#X declare -lib ceammc -lib creammc;
#X obj 372 50 cnv 1 323 21 empty empty empty 17 7 0 10 -245760 -1 0;
#X text 372 50 unpack list elements to separate outlets;
#X obj 1 1 cnv 5 712 40 empty empty list.unpack 20 20 0 20 -104026
-4096 0;
#X obj 607 11 list.unpack;
#X msg 50 118 1 2 3 4 5 6;
#X obj 50 147 list.unpack 3;
#X floatatom 50 176 5 0 0 0 - - -;
#X floatatom 107 176 5 0 0 0 - - -;
#X floatatom 174 176 5 0 0 0 - - -;
#X obj 20 215 cnv 1 685 1 empty empty empty 17 7 0 10 -203890 -1 0;
#X obj 20 220 cnv 5 90 26 empty empty arguments: 4 10 0 14 -262144
-49933 0;
#X text 120 225 1\.;
#X text 150 225 int;
#X obj 241 226 cnv 1 17 18 empty empty empty 17 7 0 10 -245695 -1 0;
#X text 240 225 N: number of outlets. Range: 1\...32;
#X obj 20 253 cnv 1 685 1 empty empty empty 17 7 0 10 -203890 -1 0;
#X obj 20 258 cnv 5 98 26 empty empty properties: 4 10 0 14 -262144
-49933 0;
#X msg 120 263 @n;
#X text 240 263 (readonly) Get number of outlets. Type: int. Default
value: 1\. Value range: 1-32;
#X obj 20 310 cnv 1 685 1 empty empty empty 17 7 0 10 -203890 -1 0;
#X obj 20 315 cnv 5 64 26 empty empty inlets: 4 10 0 14 -262144 -49933
0;
#X text 120 320 1\.;
#X text 150 320 *list*;
#X text 240 320 input list.;
#X obj 20 348 cnv 1 685 1 empty empty empty 17 7 0 10 -203890 -1 0;
#X obj 20 353 cnv 5 73 26 empty empty outlets: 4 10 0 14 -262144
-49933 0;
#X text 120 358 1\.;
#X text 240 358 outlet for first atom in list;
#X text 120 376 ....;
#X text 240 376 ;
#X text 120 394 n.;
#X text 240 394 outlet for Nth atom in list;
#X obj 10 48 ui.link @title index @url index-help.pd;
#X text 51 45 ::;
#X obj 67 48 ui.link @title ceammc @url ceammc-help.pd;
#X text 115 45 ::;
#X obj 131 48 ui.link @title list @url ceammc.list-help.pd;
#X obj 1 505 cnv 5 712 48 empty empty empty 17 7 0 10 -203890 -1 0;
#X text 10 508 library: ceammc v0.3;
#X text 534 520 see also:;
#X obj 610 520 list.repack;
#N canvas 10 527 400 290 info 0;
#X obj 1 1 cnv 1 107 287 empty empty empty 17 7 0 10 -183085 -1 0;
#X text 10 10 library:;
#X text 120 10 ceammc;
#X text 10 32 version:;
#X text 120 32 0.3;
#X text 10 54 object:;
#X text 120 54 list.unpack;
#X text 10 76 category:;
#X text 120 76 list;
#X text 10 98 since:;
#X text 120 98 0.3;
#X text 10 120 authors:;
#X text 120 120 Serge Poltavsky;
#X text 10 142 license:;
#X text 120 142 GPL3;
#X text 10 164 keywords:;
#X text 120 164 list \, unpack;
#X text 10 186 website:;
#X obj 120 189 ui.link @title https://github.com/uliss/pure-data @url
https://github.com/uliss/pure-data;
#X obj 120 208 declare -lib ceammc -lib creammc;
#X obj 120 268 cnv 1 270 1 empty empty empty 17 7 0 10 -203890 -1 0;
#X text 120 268 generated by pddoc;
#X restore 10 527 pd info;
#X connect 4 0 5 0;
#X connect 5 1 7 0;
#X connect 5 2 8 0;
#X connect 5 0 6 0;
