#N canvas 0 0 715 555 12;
#X declare -lib ceammc -lib creammc;
#X obj 221 50 cnv 1 474 49 empty empty empty 17 7 0 10 -245760 -1 0;
#X text 221 50 takes n lists from n inlets (specified by argument) and
output their elements sequentially (list1-1 list2-1 list1-2 list2-2
etc.).;
#X obj 1 1 cnv 5 712 40 empty empty list.interleave 20 20 0 20 -104026
-4096 0;
#X obj 579 11 list.interleave;
#X msg 50 118 10 20 30;
#X msg 165 118 list a b;
#X msg 270 118 1 2 3 4 5;
#X msg 78 147 @pad;
#X msg 194 147 @clip;
#X msg 318 147 @wrap;
#X msg 395 147 @fold;
#X obj 50 190 list.interleave 3 @min;
#X obj 50 219 msg set;
#X msg 50 248 ;
#X obj 20 287 cnv 1 685 1 empty empty empty 17 7 0 10 -203890 -1 0;
#X obj 20 292 cnv 5 90 26 empty empty arguments: 4 10 0 14 -262144
-49933 0;
#X text 120 297 1\.;
#X text 150 297 int;
#X obj 241 298 cnv 1 17 18 empty empty empty 17 7 0 10 -245695 -1 0;
#X text 240 297 N: number of inputs. Min value: 2;
#X obj 20 325 cnv 1 685 1 empty empty empty 17 7 0 10 -203890 -1 0;
#X obj 20 330 cnv 5 64 26 empty empty inlets: 4 10 0 14 -262144 -49933
0;
#X text 120 335 1\.;
#X text 150 335 *list*;
#X text 240 335 input list.;
#X obj 20 363 cnv 1 685 1 empty empty empty 17 7 0 10 -203890 -1 0;
#X obj 20 368 cnv 5 73 26 empty empty outlets: 4 10 0 14 -262144
-49933 0;
#X text 120 373 1\.;
#X text 240 373 interleaved list;
#X obj 10 48 ui.link @title index @url index-help.pd;
#X text 51 45 ::;
#X obj 67 48 ui.link @title ceammc @url ceammc-help.pd;
#X text 115 45 ::;
#X obj 131 48 ui.link @title list @url ceammc.list-help.pd;
#X obj 1 505 cnv 5 712 48 empty empty empty 17 7 0 10 -203890 -1 0;
#X text 10 508 library: ceammc v0.3;
#X text 491 520 see also:;
#X obj 567 520 list.deinterleave;
#N canvas 10 527 400 290 info 0;
#X obj 1 1 cnv 1 107 287 empty empty empty 17 7 0 10 -183085 -1 0;
#X text 10 10 library:;
#X text 120 10 ceammc;
#X text 10 32 version:;
#X text 120 32 0.3;
#X text 10 54 object:;
#X text 120 54 list.interleave;
#X text 10 76 category:;
#X text 120 76 list;
#X text 10 98 since:;
#X text 120 98 0.1;
#X text 10 120 authors:;
#X text 120 120 Alex Nadzharov \, Serge Poltavsky;
#X text 10 142 license:;
#X text 120 142 GPL3;
#X text 10 164 keywords:;
#X text 120 164 list \, functional;
#X text 10 186 website:;
#X obj 120 189 ui.link @title https://github.com/uliss/pure-data @url
https://github.com/uliss/pure-data;
#X obj 120 208 declare -lib ceammc -lib creammc;
#X obj 120 268 cnv 1 270 1 empty empty empty 17 7 0 10 -203890 -1 0;
#X text 120 268 generated by pddoc;
#X restore 10 527 pd info;
#X connect 8 0 11 0;
#X connect 9 0 11 0;
#X connect 4 0 11 0;
#X connect 10 0 11 0;
#X connect 11 0 12 0;
#X connect 5 0 11 1;
#X connect 12 0 13 0;
#X connect 7 0 11 0;
#X connect 6 0 11 2;
