#N canvas 0 0 715 555 12;
#X declare -lib ceammc -lib creammc;
#X obj 229 50 cnv 1 466 49 empty empty empty 17 7 0 10 -245760 -1 0;
#X text 229 50 filters repeated elements of the list and outputs
unique elements on first outlet \, outputs the count of elements on
second.;
#X obj 1 1 cnv 5 712 40 empty empty list.wrap 20 20 0 20 -104026 -4096
0;
#X obj 622 11 list.wrap;
#X msg 50 133 1 1 2 2 2 1 1;
#X obj 50 162 list.wrap;
#X obj 50 190 msg set;
#X obj 194 190 msg set;
#X msg 50 219 ;
#X msg 194 219 ;
#X obj 20 243 cnv 1 685 1 empty empty empty 17 7 0 10 -203890 -1 0;
#X obj 20 248 cnv 5 64 26 empty empty inlets: 4 10 0 14 -262144 -49933
0;
#X text 120 253 1\.;
#X text 150 253 *list*;
#X text 240 253 Input list.;
#X obj 20 281 cnv 1 685 1 empty empty empty 17 7 0 10 -203890 -1 0;
#X obj 20 286 cnv 5 73 26 empty empty outlets: 4 10 0 14 -262144
-49933 0;
#X text 120 291 1\.;
#X text 240 291 First list: list entries without repetitions. For
example 1 1 2 2 2 1 1 becomes 1 2 1;
#X text 120 323 2\.;
#X text 240 323 Second list: count of entries.;
#X obj 10 48 ui.link @title index @url index-help.pd;
#X text 51 45 ::;
#X obj 67 48 ui.link @title ceammc @url ceammc-help.pd;
#X text 115 45 ::;
#X obj 131 48 ui.link @title list @url ceammc.list-help.pd;
#X obj 1 505 cnv 5 712 48 empty empty empty 17 7 0 10 -203890 -1 0;
#X text 10 508 library: ceammc v0.3;
#X text 549 520 see also:;
#X obj 625 520 list.wrap;
#N canvas 10 527 400 290 info 0;
#X obj 1 1 cnv 1 107 287 empty empty empty 17 7 0 10 -183085 -1 0;
#X text 10 10 library:;
#X text 120 10 ceammc;
#X text 10 32 version:;
#X text 120 32 0.3;
#X text 10 54 object:;
#X text 120 54 list.wrap;
#X text 10 76 category:;
#X text 120 76 list;
#X text 10 98 since:;
#X text 120 98 0.1;
#X text 10 120 authors:;
#X text 120 120 Alex Nadzharov \, Serge Poltavsky;
#X text 10 142 license:;
#X text 120 142 GPL3;
#X text 10 164 keywords:;
#X text 120 164 list \, functional;
#X text 10 186 website:;
#X obj 120 189 ui.link @title https://github.com/uliss/pure-data @url
https://github.com/uliss/pure-data;
#X obj 120 208 declare -lib ceammc -lib creammc;
#X obj 120 268 cnv 1 270 1 empty empty empty 17 7 0 10 -203890 -1 0;
#X text 120 268 generated by pddoc;
#X restore 10 527 pd info;
#X connect 6 0 8 0;
#X connect 4 0 5 0;
#X connect 5 1 7 0;
#X connect 5 0 6 0;
#X connect 7 0 9 0;
