#N canvas 0 0 715 555 12;
#X declare -lib ceammc -lib creammc;
#X obj 317 50 cnv 1 378 21 empty empty empty 17 7 0 10 -245760 -1 0;
#X text 317 50 splits list to N lists \, each to separate output;
#X obj 1 1 cnv 5 712 40 empty empty list.deinterleave 20 20 0 20
-104026 -4096 0;
#X obj 564 11 list.deinterleave;
#X obj 205 80 cnv 1 490 121 empty empty empty 17 7 0 10 -257983 -1 0;
#X text 210 80 For N = 2 and list elements [1 2 3 4] we get [1 3] on
output 1 and [2 4] on output 2\.;
#X text 210 117 If input value is [1 2 3 4 5] the output depends on
split method.;
#X text 210 154 If @min method used \, output is [1 3 5] and [2 4]. If
@pad method used with value X \, output if [1 3 5] and [2 4 X];
#X msg 50 229 1 2 3 4;
#X msg 146 229 1 2 3 4 5;
#X msg 78 273 dump;
#X msg 203 273 @min;
#X msg 270 273 @pad X;
#X obj 50 330 list.deinterleave 2;
#X obj 50 359 msg set;
#X obj 194 359 msg set;
#X msg 50 388 ;
#X msg 203 388 ;
#X obj 20 427 cnv 1 685 1 empty empty empty 17 7 0 10 -203890 -1 0;
#X obj 20 432 cnv 5 90 26 empty empty arguments: 4 10 0 14 -262144
-49933 0;
#X text 120 437 1\.;
#X text 150 437 int;
#X obj 241 438 cnv 1 17 18 empty empty empty 17 7 0 10 -245695 -1 0;
#X text 240 437 N: number of output outlets. Min value: 2;
#X text 120 455 2\.;
#X text 150 455 property;
#X obj 241 456 cnv 1 65 18 empty empty empty 17 7 0 10 -245695 -1 0;
#X text 240 455 @method: Split method if number element in the input
list is not multiple of number of outputs. Possible values are: min
(default) and pad.;
#X text 120 501 3\.;
#X text 150 501 property;
#X obj 241 502 cnv 1 41 18 empty empty empty 17 7 0 10 -245695 -1 0;
#X text 240 501 @pad: Alias to @method pad. Pads result lists with
specified value \, if number of elements in the input list is not
multiple of number of outputs..;
#X text 120 547 4\.;
#X text 150 547 property;
#X obj 241 548 cnv 1 41 18 empty empty empty 17 7 0 10 -245695 -1 0;
#X text 240 547 @min: Alias to @method min. No padding used..;
#X obj 20 575 cnv 1 685 1 empty empty empty 17 7 0 10 -203890 -1 0;
#X obj 20 580 cnv 5 64 26 empty empty inlets: 4 10 0 14 -262144 -49933
0;
#X text 120 585 1\.;
#X text 150 585 *list*;
#X text 240 585 input list.;
#X obj 20 613 cnv 1 685 1 empty empty empty 17 7 0 10 -203890 -1 0;
#X obj 20 618 cnv 5 73 26 empty empty outlets: 4 10 0 14 -262144
-49933 0;
#X text 120 623 1\.;
#X text 240 623 deinterleaved list;
#X obj 10 48 ui.link @title index @url index-help.pd;
#X text 51 45 ::;
#X obj 67 48 ui.link @title ceammc @url ceammc-help.pd;
#X text 115 45 ::;
#X obj 131 48 ui.link @title list @url ceammc.list-help.pd;
#X obj 1 671 cnv 5 712 48 empty empty empty 17 7 0 10 -203890 -1 0;
#X text 10 674 library: ceammc v0.3;
#X text 506 686 see also:;
#X obj 582 686 list.interleave;
#N canvas 10 693 400 290 info 0;
#X obj 1 1 cnv 1 107 287 empty empty empty 17 7 0 10 -183085 -1 0;
#X text 10 10 library:;
#X text 120 10 ceammc;
#X text 10 32 version:;
#X text 120 32 0.3;
#X text 10 54 object:;
#X text 120 54 list.deinterleave;
#X text 10 76 category:;
#X text 120 76 list;
#X text 10 98 since:;
#X text 120 98 0.1;
#X text 10 120 authors:;
#X text 120 120 Alex Nadzharov \, Serge Poltavsky;
#X text 10 142 license:;
#X text 120 142 GPL3;
#X text 10 164 keywords:;
#X text 120 164 list;
#X text 10 186 website:;
#X obj 120 189 ui.link @title https://github.com/uliss/pure-data @url
https://github.com/uliss/pure-data;
#X obj 120 208 declare -lib ceammc -lib creammc;
#X obj 120 268 cnv 1 270 1 empty empty empty 17 7 0 10 -203890 -1 0;
#X text 120 268 generated by pddoc;
#X restore 10 693 pd info;
#X connect 11 0 13 0;
#X connect 13 1 15 0;
#X connect 10 0 13 0;
#X connect 15 0 17 0;
#X connect 8 0 13 0;
#X connect 14 0 16 0;
#X connect 12 0 13 0;
#X connect 9 0 13 0;
#X connect 13 0 14 0;
