#N canvas 0 0 715 555 12;
#X declare -lib ceammc -lib creammc;
#X obj 468 50 cnv 1 227 21 empty empty empty 17 7 0 10 -245760 -1 0;
#X text 468 50 remove elements by predicate;
#X obj 1 1 cnv 5 712 40 empty empty list.remove_if 20 20 0 20 -104026
-4096 0;
#X obj 586 11 list.remove_if;
#X obj 205 80 cnv 1 490 47 empty empty empty 17 7 0 10 -257983 -1 0;
#X text 210 80 Predicate object should accept atom and output 0 (leave
element) or 1 (remove).;
#X msg 50 155 10;
#X msg 338 155 10;
#X obj 50 184 list.seq;
#X obj 338 184 list.seq;
#X obj 50 213 list.remove_if;
#X obj 232 213 is_odd;
#X obj 338 213 list.remove_if;
#X obj 520 213 > 5;
#X obj 50 242 msg set;
#X obj 338 242 msg set;
#X msg 50 271 ;
#X msg 338 271 ;
#X obj 20 310 cnv 1 685 1 empty empty empty 17 7 0 10 -203890 -1 0;
#X obj 20 315 cnv 5 64 26 empty empty inlets: 4 10 0 14 -262144 -49933
0;
#X text 120 320 1\.;
#X text 150 320 *list*;
#X text 240 320 input list.;
#X text 120 338 2\.;
#X text 150 338 *float*;
#X text 240 338 value from predicate.;
#X obj 20 366 cnv 1 685 1 empty empty empty 17 7 0 10 -203890 -1 0;
#X obj 20 371 cnv 5 73 26 empty empty outlets: 4 10 0 14 -262144
-49933 0;
#X text 120 376 1\.;
#X text 240 376 output list with some removed elements;
#X text 120 394 2\.;
#X text 240 394 atom to predicate;
#X obj 10 48 ui.link @title index @url index-help.pd;
#X text 51 45 ::;
#X obj 67 48 ui.link @title ceammc @url ceammc-help.pd;
#X text 115 45 ::;
#X obj 131 48 ui.link @title list @url ceammc.list-help.pd;
#X obj 1 505 cnv 5 712 48 empty empty empty 17 7 0 10 -203890 -1 0;
#X text 10 508 library: ceammc v0.3;
#X text 419 520 see also:;
#X obj 495 520 list.count_if;
#X obj 604 520 list.pass_if;
#N canvas 10 527 400 290 info 0;
#X obj 1 1 cnv 1 107 287 empty empty empty 17 7 0 10 -183085 -1 0;
#X text 10 10 library:;
#X text 120 10 ceammc;
#X text 10 32 version:;
#X text 120 32 0.3;
#X text 10 54 object:;
#X text 120 54 list.remove_if;
#X text 10 76 category:;
#X text 120 76 list;
#X text 10 98 since:;
#X text 120 98 0.1;
#X text 10 120 authors:;
#X text 120 120 Serge Poltavsky;
#X text 10 142 license:;
#X text 120 142 GPL3;
#X text 10 164 keywords:;
#X text 120 164 list \, remove \, predicate;
#X text 10 186 website:;
#X obj 120 189 ui.link @title https://github.com/uliss/pure-data @url
https://github.com/uliss/pure-data;
#X obj 120 208 declare -lib ceammc -lib creammc;
#X obj 120 268 cnv 1 270 1 empty empty empty 17 7 0 10 -203890 -1 0;
#X text 120 268 generated by pddoc;
#X restore 10 527 pd info;
#X connect 12 0 15 0;
#X connect 10 1 11 0;
#X connect 10 0 14 0;
#X connect 9 0 12 0;
#X connect 15 0 17 0;
#X connect 13 0 12 1;
#X connect 8 0 10 0;
#X connect 6 0 8 0;
#X connect 12 1 13 0;
#X connect 14 0 16 0;
#X connect 11 0 10 1;
#X connect 7 0 9 0;
