#N canvas 0 0 715 555 12;
#X declare -lib ceammc -lib creammc;
#X obj 523 50 cnv 1 172 21 empty empty empty 17 7 0 10 -245760 -1 0;
#X text 523 50 exponential functions;
#X obj 1 1 cnv 5 712 40 empty empty math.exp 20 20 0 20 -104026 -4096
0;
#X obj 629 11 math.exp;
#X obj 205 80 cnv 1 490 227 empty empty empty 17 7 0 10 -257983 -1 0;
#X text 210 80 The exp() function computes e**x \, the base-e
exponential of x.;
#X text 210 117 If x is nearly zero \, then the common expression
exp(x) - 1.0 will suffer from catastrophic cancellation and the result
will have little or no precision.;
#X text 210 168 Special values:;
#X text 210 191 exp(+-0) return 1\.;
#X text 210 214 exp(-infinity) return +0\.;
#X text 210 237 exp(+infinity) return +infinity.;
#X text 210 260 For all these functions \, a range error occurs if the
magnitude of x is too large.;
#X floatatom 50 335 5 0 0 0 - - -;
#X obj 50 364 math.exp;
#X floatatom 50 393 5 0 0 0 - - -;
#X obj 20 432 cnv 1 685 1 empty empty empty 17 7 0 10 -203890 -1 0;
#X obj 20 437 cnv 5 64 26 empty empty inlets: 4 10 0 14 -262144 -49933
0;
#X text 120 442 1\.;
#X text 150 442 *float*;
#X text 240 442 input value.;
#X text 150 460 *list*;
#X text 240 460 apply to all numeric values.;
#X obj 20 488 cnv 1 685 1 empty empty empty 17 7 0 10 -203890 -1 0;
#X obj 20 493 cnv 5 73 26 empty empty outlets: 4 10 0 14 -262144
-49933 0;
#X text 120 498 1\.;
#X text 240 498 result value;
#X obj 10 48 ui.link @title index @url index-help.pd;
#X text 51 45 ::;
#X obj 67 48 ui.link @title ceammc @url ceammc-help.pd;
#X text 115 45 ::;
#X obj 131 48 ui.link @title math @url ceammc.math-help.pd;
#X obj 1 546 cnv 5 712 48 empty empty empty 17 7 0 10 -203890 -1 0;
#X text 10 549 library: ceammc v0.3;
#X text 476 561 see also:;
#X obj 552 561 math.log;
#X obj 625 561 math.exp2;
#N canvas 10 568 400 290 info 0;
#X obj 1 1 cnv 1 107 287 empty empty empty 17 7 0 10 -183085 -1 0;
#X text 10 10 library:;
#X text 120 10 ceammc;
#X text 10 32 version:;
#X text 120 32 0.3;
#X text 10 54 object:;
#X text 120 54 math.exp;
#X text 10 76 category:;
#X text 120 76 math;
#X text 10 98 since:;
#X text 120 98 0.1;
#X text 10 120 authors:;
#X text 120 120 Serge Poltavsky;
#X text 10 142 license:;
#X text 120 142 GPL3;
#X text 10 164 keywords:;
#X text 120 164 math \, exp;
#X text 10 186 website:;
#X obj 120 189 ui.link @title https://github.com/uliss/pure-data @url
https://github.com/uliss/pure-data;
#X obj 120 208 declare -lib ceammc -lib creammc;
#X obj 120 268 cnv 1 270 1 empty empty empty 17 7 0 10 -203890 -1 0;
#X text 120 268 generated by pddoc;
#X restore 10 568 pd info;
#X connect 13 0 14 0;
#X connect 12 0 13 0;
