#N canvas 0 0 715 555 12;
#X declare -lib ceammc -lib creammc;
#X obj 507 50 cnv 1 188 21 empty empty empty 17 7 0 10 -245760 -1 0;
#X text 507 50 absolute value function;
#X obj 1 1 cnv 5 712 40 empty empty math.abs 20 20 0 20 -104026 -4096
0;
#X obj 629 11 math.abs;
#X obj 205 80 cnv 1 490 47 empty empty empty 17 7 0 10 -257983 -1 0;
#X text 210 80 The abs() function computes the absolute value of the
float input.;
#X floatatom 50 155 5 0 0 0 - - -;
#X msg 117 155 1 2 -5 7 d b;
#X obj 50 184 math.abs;
#X obj 50 213 msg set;
#X msg 50 242 ;
#X obj 20 281 cnv 1 685 1 empty empty empty 17 7 0 10 -203890 -1 0;
#X obj 20 286 cnv 5 64 26 empty empty inlets: 4 10 0 14 -262144 -49933
0;
#X text 120 291 1\.;
#X text 150 291 *float*;
#X text 240 291 input value.;
#X text 150 309 *list*;
#X text 240 309 apply to all numeric values.;
#X obj 20 337 cnv 1 685 1 empty empty empty 17 7 0 10 -203890 -1 0;
#X obj 20 342 cnv 5 73 26 empty empty outlets: 4 10 0 14 -262144
-49933 0;
#X text 120 347 1\.;
#X text 240 347 result value;
#X obj 10 48 ui.link @title index @url index-help.pd;
#X text 51 45 ::;
#X obj 67 48 ui.link @title ceammc @url ceammc-help.pd;
#X text 115 45 ::;
#X obj 131 48 ui.link @title math @url ceammc.math-help.pd;
#X obj 1 505 cnv 5 712 48 empty empty empty 17 7 0 10 -203890 -1 0;
#X text 10 508 library: ceammc v0.3;
#X text 541 520 see also:;
#X obj 617 520 math.floor;
#N canvas 10 527 400 290 info 0;
#X obj 1 1 cnv 1 107 287 empty empty empty 17 7 0 10 -183085 -1 0;
#X text 10 10 library:;
#X text 120 10 ceammc;
#X text 10 32 version:;
#X text 120 32 0.3;
#X text 10 54 object:;
#X text 120 54 math.abs;
#X text 10 76 category:;
#X text 120 76 math;
#X text 10 98 since:;
#X text 120 98 0.1;
#X text 10 120 authors:;
#X text 120 120 Serge Poltavsky;
#X text 10 142 license:;
#X text 120 142 GPL3;
#X text 10 164 keywords:;
#X text 120 164 math \, abs;
#X text 10 186 website:;
#X obj 120 189 ui.link @title https://github.com/uliss/pure-data @url
https://github.com/uliss/pure-data;
#X obj 120 208 declare -lib ceammc -lib creammc;
#X obj 120 268 cnv 1 270 1 empty empty empty 17 7 0 10 -203890 -1 0;
#X text 120 268 generated by pddoc;
#X restore 10 527 pd info;
#X connect 6 0 8 0;
#X connect 7 0 8 0;
#X connect 8 0 9 0;
#X connect 9 0 10 0;
