#N canvas 0 0 715 555 12;
#X declare -lib ceammc -lib creammc;
#X obj 571 50 cnv 1 124 21 empty empty empty 17 7 0 10 -245760 -1 0;
#X text 571 50 cosine function;
#X obj 1 1 cnv 5 712 40 empty empty math.cos 20 20 0 20 -104026 -4096
0;
#X obj 629 11 math.cos;
#X obj 205 80 cnv 1 490 130 empty empty empty 17 7 0 10 -257983 -1 0;
#X text 210 80 The cos() function computes the cosine of input value
(measured in radians).;
#X text 210 117 Special values:;
#X text 210 140 cos(+-0) returns 1\.;
#X text 210 163 cos(+-infinity) returns a NaN and raises the "invalid"
floating-point exception.;
#X floatatom 50 238 5 0 0 0 - - -;
#X obj 50 267 math.cos;
#X floatatom 50 296 5 0 0 0 - - -;
#X obj 20 335 cnv 1 685 1 empty empty empty 17 7 0 10 -203890 -1 0;
#X obj 20 340 cnv 5 64 26 empty empty inlets: 4 10 0 14 -262144 -49933
0;
#X text 120 345 1\.;
#X text 150 345 *float*;
#X text 240 345 input value.;
#X text 150 363 *list*;
#X text 240 363 apply to all numeric values.;
#X obj 20 391 cnv 1 685 1 empty empty empty 17 7 0 10 -203890 -1 0;
#X obj 20 396 cnv 5 73 26 empty empty outlets: 4 10 0 14 -262144
-49933 0;
#X text 120 401 1\.;
#X text 240 401 result value;
#X obj 10 48 ui.link @title index @url index-help.pd;
#X text 51 45 ::;
#X obj 67 48 ui.link @title ceammc @url ceammc-help.pd;
#X text 115 45 ::;
#X obj 131 48 ui.link @title math @url ceammc.math-help.pd;
#X obj 1 505 cnv 5 712 48 empty empty empty 17 7 0 10 -203890 -1 0;
#X text 10 508 library: ceammc v0.3;
#X text 323 520 see also:;
#X obj 399 520 math.sin;
#X obj 472 520 math.tan;
#X obj 545 520 math.asin;
#X obj 625 520 math.acos;
#N canvas 10 527 400 290 info 0;
#X obj 1 1 cnv 1 107 287 empty empty empty 17 7 0 10 -183085 -1 0;
#X text 10 10 library:;
#X text 120 10 ceammc;
#X text 10 32 version:;
#X text 120 32 0.3;
#X text 10 54 object:;
#X text 120 54 math.cos;
#X text 10 76 category:;
#X text 120 76 math;
#X text 10 98 since:;
#X text 120 98 0.1;
#X text 10 120 authors:;
#X text 120 120 Serge Poltavsky;
#X text 10 142 license:;
#X text 120 142 GPL3;
#X text 10 164 keywords:;
#X text 120 164 math \, cos;
#X text 10 186 website:;
#X obj 120 189 ui.link @title https://github.com/uliss/pure-data @url
https://github.com/uliss/pure-data;
#X obj 120 208 declare -lib ceammc -lib creammc;
#X obj 120 268 cnv 1 270 1 empty empty empty 17 7 0 10 -203890 -1 0;
#X text 120 268 generated by pddoc;
#X restore 10 527 pd info;
#X connect 10 0 11 0;
#X connect 9 0 10 0;
