#N canvas 0 0 715 555 12;
#X declare -lib ceammc -lib creammc;
#X obj 410 50 cnv 1 285 21 empty empty empty 17 7 0 10 -245760 -1 0;
#X text 410 50 Not a Number \, unrepresentable value;
#X obj 1 1 cnv 5 712 40 empty empty math.nan 20 20 0 20 -104026 -4096
0;
#X obj 629 11 math.nan;
#X obj 205 80 cnv 1 490 117 empty empty empty 17 7 0 10 -257983 -1 0;
#X text 210 80 In computing \, NaN \, standing for not a number \, is
a numeric data type value representing an undefined or unrepresentable
value \, especially in floating-point calculations. Systematic use of
NaNs was introduced by the IEEE 754 floating-point standard in 1985 \,
along with the representation of other non-finite quantities like
infinities.;
#X obj 50 225 bng 15 250 50 0 empty empty empty 17 7 0 10 -262144 -1
-1;
#X obj 50 254 math.nan;
#X floatatom 50 283 5 0 0 0 - - -;
#X obj 20 322 cnv 1 685 1 empty empty empty 17 7 0 10 -203890 -1 0;
#X obj 20 327 cnv 5 64 26 empty empty inlets: 4 10 0 14 -262144 -49933
0;
#X text 120 332 1\.;
#X text 150 332 *bang*;
#X text 240 332 outputs value.;
#X obj 20 360 cnv 1 685 1 empty empty empty 17 7 0 10 -203890 -1 0;
#X obj 20 365 cnv 5 73 26 empty empty outlets: 4 10 0 14 -262144
-49933 0;
#X text 120 370 1\.;
#X text 240 370 output value;
#X obj 10 48 ui.link @title index @url index-help.pd;
#X text 51 45 ::;
#X obj 67 48 ui.link @title ceammc @url ceammc-help.pd;
#X text 115 45 ::;
#X obj 131 48 ui.link @title math @url ceammc.math-help.pd;
#X obj 1 505 cnv 5 712 48 empty empty empty 17 7 0 10 -203890 -1 0;
#X text 10 508 library: ceammc v0.3;
#X text 556 520 see also:;
#X obj 632 520 math.inf;
#N canvas 10 527 400 290 info 0;
#X obj 1 1 cnv 1 107 287 empty empty empty 17 7 0 10 -183085 -1 0;
#X text 10 10 library:;
#X text 120 10 ceammc;
#X text 10 32 version:;
#X text 120 32 0.3;
#X text 10 54 object:;
#X text 120 54 math.nan;
#X text 10 76 category:;
#X text 120 76 math;
#X text 10 98 since:;
#X text 120 98 0.1;
#X text 10 120 authors:;
#X text 120 120 Serge Poltavsky;
#X text 10 142 license:;
#X text 120 142 GPL3;
#X text 10 164 keywords:;
#X text 120 164 math \, nan;
#X text 10 186 website:;
#X obj 120 189 ui.link @title https://github.com/uliss/pure-data @url
https://github.com/uliss/pure-data;
#X obj 120 208 declare -lib ceammc -lib creammc;
#X obj 120 268 cnv 1 270 1 empty empty empty 17 7 0 10 -203890 -1 0;
#X text 120 268 generated by pddoc;
#X restore 10 527 pd info;
#X connect 6 0 7 0;
#X connect 7 0 8 0;
