#N canvas 0 0 715 555 12;
#X declare -lib ceammc -lib creammc;
#X obj 587 50 cnv 1 108 21 empty empty empty 17 7 0 10 -245760 -1 0;
#X text 587 50 sign function;
#X obj 1 1 cnv 5 712 40 empty empty math.sign 20 20 0 20 -104026 -4096
0;
#X obj 622 11 math.sign;
#X obj 205 80 cnv 1 490 33 empty empty empty 17 7 0 10 -257983 -1 0;
#X text 210 80 Returns *-1* if x < 0 \, *0* if x == 0 and *1* if x >
0\.;
#X floatatom 50 141 5 0 0 0 - - -;
#X msg 98 141 -10 0 100;
#X obj 50 170 math.sign;
#X obj 50 199 msg set;
#X msg 50 228 ;
#X obj 20 267 cnv 1 685 1 empty empty empty 17 7 0 10 -203890 -1 0;
#X obj 20 272 cnv 5 64 26 empty empty inlets: 4 10 0 14 -262144 -49933
0;
#X text 120 277 1\.;
#X text 150 277 *float*;
#X text 240 277 input value.;
#X text 150 295 *list*;
#X text 240 295 list of numbers.;
#X obj 20 323 cnv 1 685 1 empty empty empty 17 7 0 10 -203890 -1 0;
#X obj 20 328 cnv 5 73 26 empty empty outlets: 4 10 0 14 -262144
-49933 0;
#X text 120 333 1\.;
#X text 240 333 result value;
#X obj 10 48 ui.link @title index @url index-help.pd;
#X text 51 45 ::;
#X obj 67 48 ui.link @title ceammc @url ceammc-help.pd;
#X text 115 45 ::;
#X obj 131 48 ui.link @title math @url ceammc.math-help.pd;
#X obj 1 505 cnv 5 712 48 empty empty empty 17 7 0 10 -203890 -1 0;
#X text 10 508 library: ceammc v0.3;
#N canvas 10 527 400 290 info 0;
#X obj 1 1 cnv 1 107 287 empty empty empty 17 7 0 10 -183085 -1 0;
#X text 10 10 library:;
#X text 120 10 ceammc;
#X text 10 32 version:;
#X text 120 32 0.3;
#X text 10 54 object:;
#X text 120 54 math.sign;
#X text 10 76 category:;
#X text 120 76 math;
#X text 10 98 since:;
#X text 120 98 0.1;
#X text 10 120 authors:;
#X text 120 120 Serge Poltavsky;
#X text 10 142 license:;
#X text 120 142 GPL3;
#X text 10 164 keywords:;
#X text 120 164 math \, sign;
#X text 10 186 website:;
#X obj 120 189 ui.link @title https://github.com/uliss/pure-data @url
https://github.com/uliss/pure-data;
#X obj 120 208 declare -lib ceammc -lib creammc;
#X obj 120 268 cnv 1 270 1 empty empty empty 17 7 0 10 -203890 -1 0;
#X text 120 268 generated by pddoc;
#X restore 10 527 pd info;
#X connect 6 0 8 0;
#X connect 7 0 8 0;
#X connect 8 0 9 0;
#X connect 9 0 10 0;
