#N canvas 0 0 715 555 12;
#X declare -lib ceammc -lib creammc;
#X obj 420 50 cnv 1 275 21 empty empty empty 17 7 0 10 -245760 -1 0;
#X text 420 50 inverse hyperbolic cosine function;
#X obj 1 1 cnv 5 712 40 empty empty math.acosh 20 20 0 20 -104026
-4096 0;
#X obj 614 11 math.acosh;
#X obj 205 80 cnv 1 490 153 empty empty empty 17 7 0 10 -257983 -1 0;
#X text 210 80 The acosh() function computes the principle value of
the inverse hyperbolic cosine of input value. The result is in the
range [0 \, +infinity].;
#X text 210 131 Special values:;
#X text 210 154 acosh(1) returns +0\.;
#X text 210 177 acosh(x) returns a NAN.;
#X text 210 200 acosh(+infinity) returns +infinity.;
#X floatatom 50 261 5 0 0 0 - - -;
#X msg 117 261 1 2 d b;
#X obj 50 290 math.acosh;
#X obj 50 319 msg set;
#X msg 50 348 ;
#X obj 20 387 cnv 1 685 1 empty empty empty 17 7 0 10 -203890 -1 0;
#X obj 20 392 cnv 5 64 26 empty empty inlets: 4 10 0 14 -262144 -49933
0;
#X text 120 397 1\.;
#X text 150 397 *float*;
#X text 240 397 input value.;
#X text 150 415 *list*;
#X text 240 415 apply to all numeric values.;
#X obj 20 443 cnv 1 685 1 empty empty empty 17 7 0 10 -203890 -1 0;
#X obj 20 448 cnv 5 73 26 empty empty outlets: 4 10 0 14 -262144
-49933 0;
#X text 120 453 1\.;
#X text 240 453 result value;
#X obj 10 48 ui.link @title index @url index-help.pd;
#X text 51 45 ::;
#X obj 67 48 ui.link @title ceammc @url ceammc-help.pd;
#X text 115 45 ::;
#X obj 131 48 ui.link @title math @url ceammc.math-help.pd;
#X obj 1 505 cnv 5 712 48 empty empty empty 17 7 0 10 -203890 -1 0;
#X text 10 508 library: ceammc v0.3;
#X text 380 520 see also:;
#X obj 456 520 math.asinh;
#X obj 544 520 math.atanh;
#X obj 632 520 math.exp;
#N canvas 10 527 400 290 info 0;
#X obj 1 1 cnv 1 107 287 empty empty empty 17 7 0 10 -183085 -1 0;
#X text 10 10 library:;
#X text 120 10 ceammc;
#X text 10 32 version:;
#X text 120 32 0.3;
#X text 10 54 object:;
#X text 120 54 math.acosh;
#X text 10 76 category:;
#X text 120 76 math;
#X text 10 98 since:;
#X text 120 98 0.1;
#X text 10 120 authors:;
#X text 120 120 Serge Poltavsky;
#X text 10 142 license:;
#X text 120 142 GPL3;
#X text 10 164 keywords:;
#X text 120 164 math \, acosh;
#X text 10 186 website:;
#X obj 120 189 ui.link @title https://github.com/uliss/pure-data @url
https://github.com/uliss/pure-data;
#X obj 120 208 declare -lib ceammc -lib creammc;
#X obj 120 268 cnv 1 270 1 empty empty empty 17 7 0 10 -203890 -1 0;
#X text 120 268 generated by pddoc;
#X restore 10 527 pd info;
#X connect 11 0 12 0;
#X connect 13 0 14 0;
#X connect 10 0 12 0;
#X connect 12 0 13 0;
