#N canvas 0 0 715 555 12;
#X declare -lib ceammc -lib creammc;
#X obj 594 50 cnv 1 101 21 empty empty empty 17 7 0 10 -245760 -1 0;
#X text 594 50 value square;
#X obj 1 1 cnv 5 712 40 empty empty math.squared 20 20 0 20 -104026
-4096 0;
#X obj 600 11 math.squared;
#X floatatom 50 118 5 0 0 0 - - -;
#X msg 98 118 -2 -1 0 1 2;
#X obj 50 147 math.squared;
#X obj 50 176 msg set;
#X msg 50 205 ;
#X obj 20 244 cnv 1 685 1 empty empty empty 17 7 0 10 -203890 -1 0;
#X obj 20 249 cnv 5 64 26 empty empty inlets: 4 10 0 14 -262144 -49933
0;
#X text 120 254 1\.;
#X text 150 254 *float*;
#X text 240 254 input value.;
#X text 150 272 *list*;
#X text 240 272 list of numbers.;
#X obj 20 300 cnv 1 685 1 empty empty empty 17 7 0 10 -203890 -1 0;
#X obj 20 305 cnv 5 73 26 empty empty outlets: 4 10 0 14 -262144
-49933 0;
#X text 120 310 1\.;
#X text 240 310 result;
#X obj 10 48 ui.link @title index @url index-help.pd;
#X text 51 45 ::;
#X obj 67 48 ui.link @title ceammc @url ceammc-help.pd;
#X text 115 45 ::;
#X obj 131 48 ui.link @title math @url ceammc.math-help.pd;
#X obj 1 505 cnv 5 712 48 empty empty empty 17 7 0 10 -203890 -1 0;
#X text 10 508 library: ceammc v0.3;
#N canvas 10 527 400 290 info 0;
#X obj 1 1 cnv 1 107 287 empty empty empty 17 7 0 10 -183085 -1 0;
#X text 10 10 library:;
#X text 120 10 ceammc;
#X text 10 32 version:;
#X text 120 32 0.3;
#X text 10 54 object:;
#X text 120 54 math.squared;
#X text 10 76 category:;
#X text 120 76 math;
#X text 10 98 since:;
#X text 120 98 0.1;
#X text 10 120 authors:;
#X text 120 120 Serge Poltavsky;
#X text 10 142 license:;
#X text 120 142 GPL3;
#X text 10 164 keywords:;
#X text 120 164 math \, square;
#X text 10 186 website:;
#X obj 120 189 ui.link @title https://github.com/uliss/pure-data @url
https://github.com/uliss/pure-data;
#X obj 120 208 declare -lib ceammc -lib creammc;
#X obj 120 268 cnv 1 270 1 empty empty empty 17 7 0 10 -203890 -1 0;
#X text 120 268 generated by pddoc;
#X restore 10 527 pd info;
#X connect 6 0 7 0;
#X connect 7 0 8 0;
#X connect 5 0 6 0;
#X connect 4 0 6 0;
