#N canvas 0 0 715 555 12;
#X declare -lib ceammc -lib creammc;
#X obj 538 50 cnv 1 157 21 empty empty empty 17 7 0 10 -245760 -1 0;
#X text 538 50 message constructor;
#X obj 1 1 cnv 5 712 40 empty empty msg 20 20 0 20 -104026 -4096 0;
#X obj 623 11 m;
#X obj 665 11 msg;
#X floatatom 50 118 5 0 0 0 - - -;
#X floatatom 107 118 5 0 0 0 - - -;
#X floatatom 184 118 5 0 0 0 - - -;
#X floatatom 261 118 5 0 0 0 - - -;
#X floatatom 357 118 5 0 0 0 - - -;
#X floatatom 472 118 5 0 0 0 - - -;
#X obj 50 147 msg;
#X obj 107 147 msg a;
#X obj 184 147 msg 1;
#X obj 261 147 msg 1 2;
#X obj 357 147 msg a b c;
#X obj 472 147 msg @a;
#X obj 50 190 ui.display @display_type 1 @size 150 18;
#X msg 50 234 symbol A;
#X msg 155 234 symbol A;
#X msg 261 234 symbol A;
#X msg 366 234 symbol A;
#X obj 50 262 msg;
#X obj 155 262 msg B;
#X obj 261 262 msg 1 2;
#X obj 366 262 msg a b c;
#X obj 50 305 ui.display @display_type 1 @size 150 18;
#X msg 50 349 b c;
#X msg 117 349 b c;
#X msg 194 349 b c;
#X msg 270 349 b c;
#X msg 366 349 d e;
#X msg 482 349 b;
#X obj 50 378 msg;
#X obj 117 378 msg a;
#X obj 194 378 msg 1;
#X obj 270 378 msg 1 2;
#X obj 366 378 msg a b c;
#X obj 482 378 msg @a;
#X obj 50 421 ui.display @display_type 1 @size 150 18;
#X msg 50 464 bang;
#X msg 117 464 bang;
#X msg 194 464 bang;
#X msg 270 464 bang;
#X msg 366 464 bang;
#X msg 482 464 bang;
#X obj 50 493 msg;
#X obj 117 493 msg a;
#X obj 194 493 msg 1;
#X obj 270 493 msg 1 2;
#X obj 366 493 msg a b c;
#X obj 482 493 msg @a;
#X obj 50 536 ui.display @display_type 1 @size 150 18;
#X obj 20 576 cnv 1 685 1 empty empty empty 17 7 0 10 -203890 -1 0;
#X obj 20 581 cnv 5 90 26 empty empty arguments: 4 10 0 14 -262144
-49933 0;
#X text 120 586 1\.;
#X text 150 586 symbol;
#X obj 241 587 cnv 1 41 18 empty empty empty 17 7 0 10 -245695 -1 0;
#X text 240 586 NAME: message selector.;
#X text 120 604 2\.;
#X text 150 604 any;
#X obj 241 605 cnv 1 17 18 empty empty empty 17 7 0 10 -245695 -1 0;
#X text 240 604 X: message content.;
#X obj 20 632 cnv 1 685 1 empty empty empty 17 7 0 10 -203890 -1 0;
#X obj 20 637 cnv 5 64 26 empty empty inlets: 4 10 0 14 -262144 -49933
0;
#X text 120 642 1\.;
#X text 150 642 *any*;
#X text 240 642 appends all atoms to message content and outputs it.;
#X text 150 660 *list*;
#X text 240 660 appends input list to message content and outputs it.;
#X text 150 678 *float*;
#X text 240 678 appends float to message content and outputs it.;
#X text 150 696 *symbol*;
#X text 240 696 appends symbol to message content and outputs it.;
#X text 120 714 2\.;
#X text 150 714 *symbol*;
#X text 240 714 change message selector.;
#X text 150 732 *list*;
#X text 240 732 change message selector and first atoms.;
#X obj 20 760 cnv 1 685 1 empty empty empty 17 7 0 10 -203890 -1 0;
#X obj 20 765 cnv 5 73 26 empty empty outlets: 4 10 0 14 -262144
-49933 0;
#X text 120 770 1\.;
#X text 240 770 message output;
#X obj 10 48 ui.link @title index @url index-help.pd;
#X text 51 45 ::;
#X obj 67 48 ui.link @title ceammc @url ceammc-help.pd;
#X text 115 45 ::;
#X obj 131 48 ui.link @title msg @url ceammc.msg-help.pd;
#X obj 1 818 cnv 5 712 48 empty empty empty 17 7 0 10 -203890 -1 0;
#X text 10 821 library: ceammc v0.3;
#N canvas 10 840 400 290 info 0;
#X obj 1 1 cnv 1 107 287 empty empty empty 17 7 0 10 -183085 -1 0;
#X text 10 10 library:;
#X text 120 10 ceammc;
#X text 10 32 version:;
#X text 120 32 0.3;
#X text 10 54 object:;
#X text 120 54 msg;
#X text 10 76 category:;
#X text 120 76 msg;
#X text 10 98 since:;
#X text 120 98 0.1;
#X text 10 120 authors:;
#X text 120 120 Serge Poltavsky;
#X text 10 142 license:;
#X text 120 142 GPL3;
#X text 10 164 keywords:;
#X text 120 164 msg \, message;
#X text 10 186 website:;
#X obj 120 189 ui.link @title https://github.com/uliss/pure-data @url
https://github.com/uliss/pure-data;
#X obj 120 208 declare -lib ceammc -lib creammc;
#X obj 120 268 cnv 1 270 1 empty empty empty 17 7 0 10 -203890 -1 0;
#X text 120 268 generated by pddoc;
#X restore 10 840 pd info;
#X connect 8 0 14 0;
#X connect 27 0 33 0;
#X connect 15 0 17 0;
#X connect 47 0 52 0;
#X connect 19 0 23 0;
#X connect 9 0 15 0;
#X connect 25 0 26 0;
#X connect 32 0 38 0;
#X connect 35 0 39 0;
#X connect 42 0 48 0;
#X connect 20 0 24 0;
#X connect 34 0 39 0;
#X connect 22 0 26 0;
#X connect 36 0 39 0;
#X connect 31 0 37 0;
#X connect 5 0 11 0;
#X connect 45 0 51 0;
#X connect 10 0 16 0;
#X connect 11 0 17 0;
#X connect 6 0 12 0;
#X connect 28 0 34 0;
#X connect 21 0 25 0;
#X connect 44 0 50 0;
#X connect 50 0 52 0;
#X connect 48 0 52 0;
#X connect 40 0 46 0;
#X connect 14 0 17 0;
#X connect 24 0 26 0;
#X connect 43 0 49 0;
#X connect 23 0 26 0;
#X connect 7 0 13 0;
#X connect 38 0 39 0;
#X connect 29 0 35 0;
#X connect 37 0 39 0;
#X connect 12 0 17 0;
#X connect 16 0 17 0;
#X connect 30 0 36 0;
#X connect 46 0 52 0;
#X connect 41 0 47 0;
#X connect 13 0 17 0;
#X connect 18 0 22 0;
#X connect 49 0 52 0;
#X connect 51 0 52 0;
#X connect 33 0 39 0;
