#N canvas 0 0 715 555 12;
#X declare -lib ceammc -lib creammc;
#X obj 530 50 cnv 1 165 21 empty empty empty 17 7 0 10 -245760 -1 0;
#X text 530 50 Pink noise generator;
#X obj 1 1 cnv 5 712 40 empty empty noise.pink~ 20 20 0 20 -104026
-4096 0;
#X obj 607 11 noise.pink~;
#X obj 205 80 cnv 1 490 149 empty empty empty 17 7 0 10 -257983 -1 0;
#X text 210 80 Pink noise or 1/f noise is a signal or process with a
frequency spectrum such that the power spectral density (energy or
power per frequency interval) is inversely proportional to the
frequency of the signal.;
#X text 210 145 In pink noise \, each octave (halving/doubling in
frequency) carries an equal amount of noise energy.;
#X text 210 182 The name arises from the pink appearance of visible
light with this power spectrum.;
#X obj 50 257 ui.dsp~;
#X obj 50 301 noise.pink~;
#X obj 50 358 ui.scope~ @size 150 100;
#X obj 20 480 cnv 1 685 1 empty empty empty 17 7 0 10 -203890 -1 0;
#X obj 20 485 cnv 5 73 26 empty empty outlets: 4 10 0 14 -262144
-49933 0;
#X text 120 490 1\.;
#X text 240 490 output signal;
#X obj 10 48 ui.link @title index @url index-help.pd;
#X text 51 45 ::;
#X obj 67 48 ui.link @title ceammc @url ceammc-help.pd;
#X text 115 45 ::;
#X obj 131 48 ui.link @title noise @url ceammc.noise-help.pd;
#X obj 1 538 cnv 5 712 48 empty empty empty 17 7 0 10 -203890 -1 0;
#X text 10 541 library: ceammc v0.3;
#X text 527 553 see also:;
#X obj 603 553 noise.white~;
#N canvas 10 560 400 290 info 0;
#X obj 1 1 cnv 1 107 287 empty empty empty 17 7 0 10 -183085 -1 0;
#X text 10 10 library:;
#X text 120 10 ceammc;
#X text 10 32 version:;
#X text 120 32 0.3;
#X text 10 54 object:;
#X text 120 54 noise.pink~;
#X text 10 76 category:;
#X text 120 76 noise;
#X text 10 98 since:;
#X text 120 98 0.1;
#X text 10 120 authors:;
#X text 120 120 Serge Poltavsky;
#X text 10 142 license:;
#X text 120 142 GPL3;
#X text 10 164 keywords:;
#X text 120 164 noise \, pink;
#X text 10 186 website:;
#X obj 120 189 ui.link @title https://github.com/uliss/pure-data @url
https://github.com/uliss/pure-data;
#X obj 120 208 declare -lib ceammc -lib creammc;
#X obj 120 268 cnv 1 270 1 empty empty empty 17 7 0 10 -203890 -1 0;
#X text 120 268 generated by pddoc;
#X restore 10 560 pd info;
#X connect 9 0 10 0;
