#N canvas 0 0 715 555 12;
#X declare -lib ceammc -lib creammc;
#X obj 395 50 cnv 1 300 21 empty empty empty 17 7 0 10 -245760 -1 0;
#X text 395 50 outputs directory portion of pathname;
#X obj 1 1 cnv 5 712 40 empty empty path.dirname 20 20 0 20 -104026
-4096 0;
#X obj 600 11 path.dirname;
#X msg 50 118 symbol HOME;
#X obj 50 147 system.getenv;
#X msg 203 147 /dir/path;
#X msg 318 147 ./test;
#X msg 405 147 /root;
#X msg 501 147 /;
#X obj 203 190 symbol;
#X msg 261 219 .;
#X msg 309 219 ..;
#X msg 357 219 C://file.txt;
#X obj 261 248 symbol;
#X obj 50 277 path.dirname;
#X obj 50 305 msg set;
#X msg 50 334 ;
#X obj 20 373 cnv 1 685 1 empty empty empty 17 7 0 10 -203890 -1 0;
#X obj 20 378 cnv 5 64 26 empty empty inlets: 4 10 0 14 -262144 -49933
0;
#X text 120 383 1\.;
#X text 150 383 *symbol*;
#X text 240 383 outputs directory portion of pathname.;
#X obj 20 411 cnv 1 685 1 empty empty empty 17 7 0 10 -203890 -1 0;
#X obj 20 416 cnv 5 73 26 empty empty outlets: 4 10 0 14 -262144
-49933 0;
#X text 120 421 1\.;
#X text 240 421 directory name;
#X obj 10 48 ui.link @title index @url index-help.pd;
#X text 51 45 ::;
#X obj 67 48 ui.link @title ceammc @url ceammc-help.pd;
#X text 115 45 ::;
#X obj 131 48 ui.link @title path @url ceammc.path-help.pd;
#X obj 1 505 cnv 5 712 48 empty empty empty 17 7 0 10 -203890 -1 0;
#X text 10 508 library: ceammc v0.3;
#X text 520 520 see also:;
#X obj 596 520 path.basename;
#N canvas 10 527 400 290 info 0;
#X obj 1 1 cnv 1 107 287 empty empty empty 17 7 0 10 -183085 -1 0;
#X text 10 10 library:;
#X text 120 10 ceammc;
#X text 10 32 version:;
#X text 120 32 0.3;
#X text 10 54 object:;
#X text 120 54 path.dirname;
#X text 10 76 category:;
#X text 120 76 path;
#X text 10 98 since:;
#X text 120 98 0.1;
#X text 10 120 authors:;
#X text 120 120 Serge Poltavsky;
#X text 10 142 license:;
#X text 120 142 GPL3;
#X text 10 164 keywords:;
#X text 120 164 path \, environment;
#X text 10 186 website:;
#X obj 120 189 ui.link @title https://github.com/uliss/pure-data @url
https://github.com/uliss/pure-data;
#X obj 120 208 declare -lib ceammc -lib creammc;
#X obj 120 268 cnv 1 270 1 empty empty empty 17 7 0 10 -203890 -1 0;
#X text 120 268 generated by pddoc;
#X restore 10 527 pd info;
#X connect 11 0 14 0;
#X connect 5 0 15 0;
#X connect 7 0 10 0;
#X connect 13 0 14 0;
#X connect 14 0 15 0;
#X connect 16 0 17 0;
#X connect 6 0 10 0;
#X connect 9 0 10 0;
#X connect 4 0 5 0;
#X connect 8 0 10 0;
#X connect 15 0 16 0;
#X connect 12 0 14 0;
#X connect 10 0 15 0;
