#N canvas 0 0 715 555 12;
#X declare -lib ceammc -lib creammc;
#X obj 475 50 cnv 1 220 21 empty empty empty 17 7 0 10 -245760 -1 0;
#X text 475 50 difference between two sets;
#X obj 1 1 cnv 5 712 40 empty empty set.diff 20 20 0 20 -104026 -4096
0;
#X obj 629 11 set.diff;
#X obj 50 118 bng 15 250 50 0 empty empty empty 17 7 0 10 -262144 -1
-1;
#X obj 50 147 data.set 1 2 3 4 5 6;
#X obj 50 176 set.diff 2 4 6;
#X obj 50 205 set->list @sort;
#X obj 50 234 msg set;
#X msg 50 262 ;
#X obj 20 301 cnv 1 685 1 empty empty empty 17 7 0 10 -203890 -1 0;
#X obj 20 306 cnv 5 90 26 empty empty arguments: 4 10 0 14 -262144
-49933 0;
#X text 120 311 1\.;
#X text 150 311 any;
#X obj 241 312 cnv 1 41 18 empty empty empty 17 7 0 10 -245695 -1 0;
#X text 240 311 ARGS: right set elements.;
#X obj 20 339 cnv 1 685 1 empty empty empty 17 7 0 10 -203890 -1 0;
#X obj 20 344 cnv 5 64 26 empty empty inlets: 4 10 0 14 -262144 -49933
0;
#X text 120 349 1\.;
#X text 240 349 first set or list (converted to set) \, other values
are ignored.;
#X text 120 381 2\.;
#X text 240 381 second set or list (converted to set).;
#X obj 20 409 cnv 1 685 1 empty empty empty 17 7 0 10 -203890 -1 0;
#X obj 20 414 cnv 5 73 26 empty empty outlets: 4 10 0 14 -262144
-49933 0;
#X text 120 419 1\.;
#X text 240 419 output set with elements from first set \, that are
not in second set;
#X obj 10 48 ui.link @title index @url index-help.pd;
#X text 51 45 ::;
#X obj 67 48 ui.link @title ceammc @url ceammc-help.pd;
#X text 115 45 ::;
#X obj 131 48 ui.link @title data @url ceammc.data-help.pd;
#X obj 1 505 cnv 5 712 48 empty empty empty 17 7 0 10 -203890 -1 0;
#X text 10 508 library: ceammc v0.3;
#X text 476 520 see also:;
#X obj 552 520 data.set;
#X obj 625 520 set.union;
#N canvas 10 527 400 290 info 0;
#X obj 1 1 cnv 1 107 287 empty empty empty 17 7 0 10 -183085 -1 0;
#X text 10 10 library:;
#X text 120 10 ceammc;
#X text 10 32 version:;
#X text 120 32 0.3;
#X text 10 54 object:;
#X text 120 54 set.diff;
#X text 10 76 category:;
#X text 120 76 data;
#X text 10 98 since:;
#X text 120 98 0.3;
#X text 10 120 authors:;
#X text 120 120 Serge Poltavsky;
#X text 10 142 license:;
#X text 120 142 GPL3;
#X text 10 164 keywords:;
#X text 120 164 data \, difference \, set;
#X text 10 186 website:;
#X obj 120 189 ui.link @title https://github.com/uliss/pure-data @url
https://github.com/uliss/pure-data;
#X obj 120 208 declare -lib ceammc -lib creammc;
#X obj 120 268 cnv 1 270 1 empty empty empty 17 7 0 10 -203890 -1 0;
#X text 120 268 generated by pddoc;
#X restore 10 527 pd info;
#X connect 6 0 7 0;
#X connect 7 0 8 0;
#X connect 5 0 6 0;
#X connect 4 0 5 0;
#X connect 8 0 9 0;
