#N canvas 0 0 715 555 12;
#X declare -lib ceammc -lib creammc;
#X obj 396 50 cnv 1 299 21 empty empty empty 17 7 0 10 -245760 -1 0;
#X text 396 50 symmetric difference between two sets;
#X obj 1 1 cnv 5 712 40 empty empty set.symdiff 20 20 0 20 -104026
-4096 0;
#X obj 608 11 set.symdiff;
#X obj 205 80 cnv 1 490 61 empty empty empty 17 7 0 10 -257983 -1 0;
#X text 210 80 Symmetric difference \, of two sets is theset of
elements which are in either of the sets and not in their
intersection;
#X obj 50 169 bng 15 250 50 0 empty empty empty 17 7 0 10 -262144 -1
-1;
#X obj 50 198 data.set A B C D;
#X obj 50 227 set.symdiff C D E F;
#X obj 50 256 set->list @sort;
#X obj 50 285 msg set;
#X msg 50 313 ;
#X obj 20 352 cnv 1 685 1 empty empty empty 17 7 0 10 -203890 -1 0;
#X obj 20 357 cnv 5 90 26 empty empty arguments: 4 10 0 14 -262144
-49933 0;
#X text 120 362 1\.;
#X text 150 362 any;
#X obj 241 363 cnv 1 41 18 empty empty empty 17 7 0 10 -245695 -1 0;
#X text 240 362 ARGS: right set elements.;
#X obj 20 390 cnv 1 685 1 empty empty empty 17 7 0 10 -203890 -1 0;
#X obj 20 395 cnv 5 64 26 empty empty inlets: 4 10 0 14 -262144 -49933
0;
#X text 120 400 1\.;
#X text 240 400 first set or list (converted to set) \, other values
are ignored.;
#X text 120 432 2\.;
#X text 240 432 second set or list (converted to set).;
#X obj 20 460 cnv 1 685 1 empty empty empty 17 7 0 10 -203890 -1 0;
#X obj 20 465 cnv 5 73 26 empty empty outlets: 4 10 0 14 -262144
-49933 0;
#X text 120 470 1\.;
#X text 240 470 output symmetric set difference;
#X obj 10 48 ui.link @title index @url index-help.pd;
#X text 51 45 ::;
#X obj 67 48 ui.link @title ceammc @url ceammc-help.pd;
#X text 115 45 ::;
#X obj 131 48 ui.link @title data @url ceammc.data-help.pd;
#X obj 1 518 cnv 5 712 48 empty empty empty 17 7 0 10 -203890 -1 0;
#X text 10 521 library: ceammc v0.3;
#X text 483 533 see also:;
#X obj 559 533 data.set;
#X obj 632 533 set.diff;
#N canvas 10 540 400 290 info 0;
#X obj 1 1 cnv 1 107 287 empty empty empty 17 7 0 10 -183085 -1 0;
#X text 10 10 library:;
#X text 120 10 ceammc;
#X text 10 32 version:;
#X text 120 32 0.3;
#X text 10 54 object:;
#X text 120 54 set.symdiff;
#X text 10 76 category:;
#X text 120 76 data;
#X text 10 98 since:;
#X text 120 98 0.3;
#X text 10 120 authors:;
#X text 120 120 Serge Poltavsky;
#X text 10 142 license:;
#X text 120 142 GPL3;
#X text 10 164 keywords:;
#X text 120 164 data \, symmetric \, difference \, set;
#X text 10 186 website:;
#X obj 120 189 ui.link @title https://github.com/uliss/pure-data @url
https://github.com/uliss/pure-data;
#X obj 120 208 declare -lib ceammc -lib creammc;
#X obj 120 268 cnv 1 270 1 empty empty empty 17 7 0 10 -203890 -1 0;
#X text 120 268 generated by pddoc;
#X restore 10 540 pd info;
#X connect 7 0 8 0;
#X connect 6 0 7 0;
#X connect 10 0 11 0;
#X connect 9 0 10 0;
#X connect 8 0 9 0;
