#N canvas 0 0 715 555 12;
#X declare -lib ceammc -lib creammc;
#X obj 284 50 cnv 1 411 21 empty empty empty 17 7 0 10 -245760 -1 0;
#X text 284 50 checks if given string starts with specified prefix;
#X obj 1 1 cnv 5 712 40 empty empty string.starts_with 20 20 0 20
-104026 -4096 0;
#X obj 424 11 str.starts_with;
#X obj 557 11 string.starts_with;
#X obj 50 118 bng 15 250 50 0 empty empty empty 17 7 0 10 -262144 -1
-1;
#X obj 50 147 string CSound;
#X msg 203 147 symbol SuperCollider;
#X obj 50 205 str.starts_with CSound;
#X obj 50 234 tgl 15 0 empty empty empty 17 7 0 10 -262144 -1 -1 0 1;
#X obj 20 271 cnv 1 685 1 empty empty empty 17 7 0 10 -203890 -1 0;
#X obj 20 276 cnv 5 90 26 empty empty arguments: 4 10 0 14 -262144
-49933 0;
#X text 120 281 1\.;
#X text 150 281 symbol;
#X obj 241 282 cnv 1 56 18 empty empty empty 17 7 0 10 -245695 -1 0;
#X text 240 281 PREFIX: prefix.;
#X obj 20 309 cnv 1 685 1 empty empty empty 17 7 0 10 -203890 -1 0;
#X obj 20 314 cnv 5 64 26 empty empty inlets: 4 10 0 14 -262144 -49933
0;
#X text 120 319 1\.;
#X text 240 319 Input string or symbol.;
#X text 120 337 2\.;
#X text 240 337 search prefix (string or symbol).;
#X obj 20 365 cnv 1 685 1 empty empty empty 17 7 0 10 -203890 -1 0;
#X obj 20 370 cnv 5 73 26 empty empty outlets: 4 10 0 14 -262144
-49933 0;
#X text 120 375 1\.;
#X text 240 375 output 1 if input string starts with prefix \,
otherwise 0;
#X obj 10 48 ui.link @title index @url index-help.pd;
#X text 51 45 ::;
#X obj 67 48 ui.link @title ceammc @url ceammc-help.pd;
#X text 115 45 ::;
#X obj 131 48 ui.link @title string @url ceammc.string-help.pd;
#X obj 1 505 cnv 5 712 48 empty empty empty 17 7 0 10 -203890 -1 0;
#X text 10 508 library: ceammc v0.3;
#X text 520 520 see also:;
#X obj 596 520 str.ends_with;
#N canvas 10 527 400 290 info 0;
#X obj 1 1 cnv 1 107 287 empty empty empty 17 7 0 10 -183085 -1 0;
#X text 10 10 library:;
#X text 120 10 ceammc;
#X text 10 32 version:;
#X text 120 32 0.3;
#X text 10 54 object:;
#X text 120 54 string.starts_with;
#X text 10 76 category:;
#X text 120 76 string;
#X text 10 98 since:;
#X text 120 98 0.3;
#X text 10 120 authors:;
#X text 120 120 Serge Poltavsky;
#X text 10 142 license:;
#X text 120 142 GPL3;
#X text 10 164 keywords:;
#X text 120 164 starts_with;
#X text 10 186 website:;
#X obj 120 189 ui.link @title https://github.com/uliss/pure-data @url
https://github.com/uliss/pure-data;
#X obj 120 208 declare -lib ceammc -lib creammc;
#X obj 120 268 cnv 1 270 1 empty empty empty 17 7 0 10 -203890 -1 0;
#X text 120 268 generated by pddoc;
#X restore 10 527 pd info;
#X connect 6 0 8 0;
#X connect 5 0 6 0;
#X connect 7 0 8 0;
#X connect 8 0 9 0;
