#N canvas 0 0 715 555 12;
#X declare -lib ceammc -lib creammc;
#X obj 491 50 cnv 1 204 21 empty empty empty 17 7 0 10 -245760 -1 0;
#X text 491 50 split string by separator;
#X obj 1 1 cnv 5 712 40 empty empty string.split 20 20 0 20 -104026
-4096 0;
#X obj 511 11 str.split;
#X obj 601 11 string.split;
#X msg 50 118 symbol A/B/C;
#X msg 242 118 symbol Sample;
#X msg 434 118 bang;
#X obj 50 147 string;
#X obj 242 147 string;
#X obj 434 147 string AB CD;
#X obj 50 176 string.split /;
#X obj 242 176 string.split;
#X obj 434 176 string.split ' ';
#X obj 50 205 string.join ' ';
#X obj 242 205 string.join *;
#X obj 434 205 string.join -;
#X obj 50 234 str->sym;
#X obj 242 234 str->sym;
#X obj 434 234 str->sym;
#X obj 50 262 msg set;
#X obj 242 262 msg set;
#X obj 434 262 msg set;
#X msg 50 291 ;
#X msg 242 291 ;
#X msg 434 291 ;
#X obj 20 330 cnv 1 685 1 empty empty empty 17 7 0 10 -203890 -1 0;
#X obj 20 335 cnv 5 90 26 empty empty arguments: 4 10 0 14 -262144
-49933 0;
#X text 120 340 1\.;
#X text 150 340 atom;
#X obj 241 341 cnv 1 32 18 empty empty empty 17 7 0 10 -245695 -1 0;
#X text 240 340 SEP: separator. If nonspecified - separate by every
char. To separate by space - use ' ' argument.;
#X obj 20 382 cnv 1 685 1 empty empty empty 17 7 0 10 -203890 -1 0;
#X obj 20 387 cnv 5 98 26 empty empty properties: 4 10 0 14 -262144
-49933 0;
#X msg 120 392 @sep;
#X text 240 392 Get/Set separator. Type: atom;
#X obj 20 429 cnv 1 685 1 empty empty empty 17 7 0 10 -203890 -1 0;
#X obj 20 434 cnv 5 64 26 empty empty inlets: 4 10 0 14 -262144 -49933
0;
#X text 120 439 1\.;
#X text 240 439 Input string.;
#X obj 20 467 cnv 1 685 1 empty empty empty 17 7 0 10 -203890 -1 0;
#X obj 20 472 cnv 5 73 26 empty empty outlets: 4 10 0 14 -262144
-49933 0;
#X text 120 477 1\.;
#X text 240 477 list of strings;
#X obj 10 48 ui.link @title index @url index-help.pd;
#X text 51 45 ::;
#X obj 67 48 ui.link @title ceammc @url ceammc-help.pd;
#X text 115 45 ::;
#X obj 131 48 ui.link @title string @url ceammc.string-help.pd;
#X obj 1 525 cnv 5 712 48 empty empty empty 17 7 0 10 -203890 -1 0;
#X text 10 528 library: ceammc v0.3;
#X text 535 540 see also:;
#X obj 611 540 string.join;
#N canvas 10 547 400 290 info 0;
#X obj 1 1 cnv 1 107 287 empty empty empty 17 7 0 10 -183085 -1 0;
#X text 10 10 library:;
#X text 120 10 ceammc;
#X text 10 32 version:;
#X text 120 32 0.3;
#X text 10 54 object:;
#X text 120 54 string.split;
#X text 10 76 category:;
#X text 120 76 string;
#X text 10 98 since:;
#X text 120 98 0.3;
#X text 10 120 authors:;
#X text 120 120 Alex Nadzharov \, Serge Poltavsky;
#X text 10 142 license:;
#X text 120 142 GPL3;
#X text 10 164 keywords:;
#X text 120 164 split;
#X text 10 186 website:;
#X obj 120 189 ui.link @title https://github.com/uliss/pure-data @url
https://github.com/uliss/pure-data;
#X obj 120 208 declare -lib ceammc -lib creammc;
#X obj 120 268 cnv 1 270 1 empty empty empty 17 7 0 10 -203890 -1 0;
#X text 120 268 generated by pddoc;
#X restore 10 547 pd info;
#X connect 16 0 19 0;
#X connect 19 0 22 0;
#X connect 8 0 11 0;
#X connect 9 0 12 0;
#X connect 12 0 15 0;
#X connect 18 0 21 0;
#X connect 10 0 13 0;
#X connect 5 0 8 0;
#X connect 22 0 25 0;
#X connect 15 0 18 0;
#X connect 17 0 20 0;
#X connect 20 0 23 0;
#X connect 6 0 9 0;
#X connect 13 0 16 0;
#X connect 14 0 17 0;
#X connect 7 0 10 0;
#X connect 21 0 24 0;
#X connect 11 0 14 0;
