#N canvas 0 0 715 555 12;
#X declare -lib ceammc -lib creammc;
#X obj 222 50 cnv 1 473 35 empty empty empty 17 7 0 10 -245760 -1 0;
#X text 222 50 returns the size of physical memory (RAM) in bytes
round to float data type.;
#X obj 1 1 cnv 5 712 40 empty empty system.memsize 20 20 0 20 -104026
-4096 0;
#X obj 586 11 system.memsize;
#X obj 50 118 bng 15 250 50 0 empty empty empty 17 7 0 10 -262144 -1
-1;
#X obj 50 147 system.memsize;
#X obj 50 176 / 1024;
#X obj 50 205 / 1024;
#X text 136 205 in Mbytes;
#X floatatom 50 234 12 0 0 0 - - -;
#X obj 20 273 cnv 1 685 1 empty empty empty 17 7 0 10 -203890 -1 0;
#X obj 20 278 cnv 5 64 26 empty empty inlets: 4 10 0 14 -262144 -49933
0;
#X text 120 283 1\.;
#X text 150 283 *bang*;
#X text 240 283 outputs memory size.;
#X obj 20 311 cnv 1 685 1 empty empty empty 17 7 0 10 -203890 -1 0;
#X obj 20 316 cnv 5 73 26 empty empty outlets: 4 10 0 14 -262144
-49933 0;
#X text 120 321 1\.;
#X text 240 321 physical memory (RAM) size in bytes;
#X obj 10 48 ui.link @title index @url index-help.pd;
#X text 51 45 ::;
#X obj 67 48 ui.link @title ceammc @url ceammc-help.pd;
#X text 115 45 ::;
#X obj 131 48 ui.link @title system @url ceammc.system-help.pd;
#X obj 1 505 cnv 5 712 48 empty empty empty 17 7 0 10 -203890 -1 0;
#X text 10 508 library: ceammc v0.3;
#X text 513 520 see also:;
#X obj 589 520 system.memused;
#N canvas 10 527 400 290 info 0;
#X obj 1 1 cnv 1 107 287 empty empty empty 17 7 0 10 -183085 -1 0;
#X text 10 10 library:;
#X text 120 10 ceammc;
#X text 10 32 version:;
#X text 120 32 0.3;
#X text 10 54 object:;
#X text 120 54 system.memsize;
#X text 10 76 category:;
#X text 120 76 system;
#X text 10 98 since:;
#X text 120 98 0.1;
#X text 10 120 authors:;
#X text 120 120 Serge Poltavsky;
#X text 10 142 license:;
#X text 120 142 GPL3;
#X text 10 164 keywords:;
#X text 120 164 system \, memory;
#X text 10 186 website:;
#X obj 120 189 ui.link @title https://github.com/uliss/pure-data @url
https://github.com/uliss/pure-data;
#X obj 120 208 declare -lib ceammc -lib creammc;
#X obj 120 268 cnv 1 270 1 empty empty empty 17 7 0 10 -203890 -1 0;
#X text 120 268 generated by pddoc;
#X restore 10 527 pd info;
#X connect 6 0 7 0;
#X connect 4 0 5 0;
#X connect 5 0 6 0;
#X connect 7 0 9 0;
