#N canvas 0 0 715 555 12;
#X declare -lib ceammc -lib creammc;
#X obj 482 50 cnv 1 213 21 empty empty empty 17 7 0 10 -245760 -1 0;
#X text 482 50 Timeline transport control;
#X obj 1 1 cnv 5 712 40 empty empty tl.transport 20 20 0 20 -104026
-4096 0;
#X obj 600 11 tl.transport;
#X obj 184 118 tl.cue;
#X obj 366 118 tl.cue;
#X obj 50 147 hradio 15 1 0 3 empty empty empty 17 7 0 10 -262144 -1
-1 0;
#X obj 213 147 tl.bang;
#X msg 50 176 cue \$1;
#X obj 213 176 bng 15 250 50 0 empty empty empty 17 7 0 10 -262144 -1
-1;
#X obj 453 176 tl.bang;
#X obj 50 205 tl.transport;
#X obj 453 205 bng 15 250 50 0 empty empty empty 17 7 0 10 -262144 -1
-1;
#X obj 20 244 cnv 1 685 1 empty empty empty 17 7 0 10 -203890 -1 0;
#X obj 20 249 cnv 5 73 26 empty empty methods: 4 10 0 14 -262144
-49933 0;
#X msg 120 254 cue;
#X text 240 254 sets cue index. Arguments are:;
#X obj 250 282 cnv 1 24 21 empty empty empty 17 7 0 10 -245695 -1 0;
#X text 250 282 [N]: cue index. Type: int. Min value: 0;
#X obj 20 320 cnv 1 685 1 empty empty empty 17 7 0 10 -203890 -1 0;
#X obj 20 325 cnv 5 64 26 empty empty inlets: 4 10 0 14 -262144 -49933
0;
#X text 120 330 1\.;
#X text 240 330 control input.;
#X obj 20 358 cnv 1 685 1 empty empty empty 17 7 0 10 -203890 -1 0;
#X obj 20 363 cnv 5 73 26 empty empty outlets: 4 10 0 14 -262144
-49933 0;
#X obj 10 48 ui.link @title index @url index-help.pd;
#X text 51 45 ::;
#X obj 67 48 ui.link @title ceammc @url ceammc-help.pd;
#X text 115 45 ::;
#X obj 131 48 ui.link @title ui @url ceammc.ui-help.pd;
#X obj 1 505 cnv 5 712 48 empty empty empty 17 7 0 10 -203890 -1 0;
#X text 10 508 library: ceammc v0.3;
#X text 568 520 see also:;
#X obj 644 523 ui.link @title [tl.cue] @bgcolor 0.78431 0.78431
0.78431 @url tl.cue-help.pd;
#N canvas 10 527 400 290 info 0;
#X obj 1 1 cnv 1 107 287 empty empty empty 17 7 0 10 -183085 -1 0;
#X text 10 10 library:;
#X text 120 10 ceammc;
#X text 10 32 version:;
#X text 120 32 0.3;
#X text 10 54 object:;
#X text 120 54 tl.transport;
#X text 10 76 category:;
#X text 120 76 ui;
#X text 10 98 since:;
#X text 120 98 0.1;
#X text 10 120 authors:;
#X text 120 120 Alex Nadzharov \, Serge Poltavsky;
#X text 10 142 license:;
#X text 120 142 GPL3;
#X text 10 164 keywords:;
#X text 120 164 timeline \, transport;
#X text 10 186 website:;
#X obj 120 189 ui.link @title https://github.com/uliss/pure-data @url
https://github.com/uliss/pure-data;
#X obj 120 208 declare -lib ceammc -lib creammc;
#X obj 120 268 cnv 1 270 1 empty empty empty 17 7 0 10 -203890 -1 0;
#X text 120 268 generated by pddoc;
#X restore 10 527 pd info;
#X connect 6 0 8 0;
#X connect 8 0 11 0;
#X connect 10 0 12 0;
#X connect 7 0 9 0;
