#N canvas 0 0 715 555 12;
#X declare -lib ceammc -lib creammc;
#X obj 245 50 cnv 1 450 49 empty empty empty 17 7 0 10 -245760 -1 0;
#X text 245 50 treats list of floats as vector \, returns the dot
product (sum of the elements of two lists with same indexes
multiplied).;
#X obj 1 1 cnv 5 712 40 empty empty vector.dot 20 20 0 20 -104026
-4096 0;
#X obj 615 11 vector.dot;
#X msg 50 118 1 0 .5;
#X msg 213 118 0 1 1;
#X msg 136 133 dump;
#X obj 50 162 vector.dot 1 2 3;
#X obj 50 190 msg set;
#X msg 50 219 ;
#X obj 20 258 cnv 1 685 1 empty empty empty 17 7 0 10 -203890 -1 0;
#X obj 20 263 cnv 5 90 26 empty empty arguments: 4 10 0 14 -262144
-49933 0;
#X text 120 268 1\.;
#X text 150 268 list;
#X obj 241 269 cnv 1 40 18 empty empty empty 17 7 0 10 -245695 -1 0;
#X text 240 268 LIST: initial second list value.;
#X obj 20 296 cnv 1 685 1 empty empty empty 17 7 0 10 -203890 -1 0;
#X obj 20 301 cnv 5 64 26 empty empty inlets: 4 10 0 14 -262144 -49933
0;
#X text 120 306 1\.;
#X text 150 306 *list*;
#X text 240 306 First list of floats.;
#X text 120 324 2\.;
#X text 150 324 *list*;
#X text 240 324 Second list of floats.;
#X obj 20 352 cnv 1 685 1 empty empty empty 17 7 0 10 -203890 -1 0;
#X obj 20 357 cnv 5 73 26 empty empty outlets: 4 10 0 14 -262144
-49933 0;
#X text 120 362 1\.;
#X text 240 362 returns dot of (list1 \, list2) \, float;
#X obj 10 48 ui.link @title index @url index-help.pd;
#X text 51 45 ::;
#X obj 67 48 ui.link @title ceammc @url ceammc-help.pd;
#X text 115 45 ::;
#X obj 131 48 ui.link @title vector @url ceammc.vector-help.pd;
#X obj 1 505 cnv 5 712 48 empty empty empty 17 7 0 10 -203890 -1 0;
#X text 10 508 library: ceammc v0.3;
#X text 265 520 see also:;
#X obj 341 520 vector.normalize;
#X obj 472 520 vector.distance;
#X obj 596 520 vector.length;
#N canvas 10 527 400 290 info 0;
#X obj 1 1 cnv 1 107 287 empty empty empty 17 7 0 10 -183085 -1 0;
#X text 10 10 library:;
#X text 120 10 ceammc;
#X text 10 32 version:;
#X text 120 32 0.3;
#X text 10 54 object:;
#X text 120 54 vector.dot;
#X text 10 76 category:;
#X text 120 76 vector;
#X text 10 98 since:;
#X text 120 98 0.1;
#X text 10 120 authors:;
#X text 120 120 Alex Nadzharov \, Serge Poltavsky;
#X text 10 142 license:;
#X text 120 142 GPL3;
#X text 10 164 keywords:;
#X text 120 164 vector \, dot \, product;
#X text 10 186 website:;
#X obj 120 189 ui.link @title https://github.com/uliss/pure-data @url
https://github.com/uliss/pure-data;
#X obj 120 208 declare -lib ceammc -lib creammc;
#X obj 120 268 cnv 1 270 1 empty empty empty 17 7 0 10 -203890 -1 0;
#X text 120 268 generated by pddoc;
#X restore 10 527 pd info;
#X connect 4 0 7 0;
#X connect 6 0 7 0;
#X connect 7 0 8 0;
#X connect 8 0 9 0;
#X connect 5 0 7 1;
