#N canvas 0 0 715 555 12;
#X declare -lib ceammc -lib creammc;
#X obj 492 50 cnv 1 203 21 empty empty empty 17 7 0 10 -245760 -1 0;
#X text 492 50 returns normalized vector;
#X obj 1 1 cnv 5 712 40 empty empty vector.normalize 20 20 0 20
-104026 -4096 0;
#X obj 571 11 vector.normalize;
#X obj 205 80 cnv 1 490 61 empty empty empty 17 7 0 10 -257983 -1 0;
#X text 210 80 Treats list of floats as vector \, divides the vector
elements by its magnitude. Note: returns 0 vector if vector length
(magnitude) is 0\.;
#X msg 50 169 1 2 3;
#X msg 126 169 0 0 0;
#X obj 50 213 vector.normalize;
#X obj 50 241 msg set;
#X msg 50 270 ;
#X obj 20 309 cnv 1 685 1 empty empty empty 17 7 0 10 -203890 -1 0;
#X obj 20 314 cnv 5 64 26 empty empty inlets: 4 10 0 14 -262144 -49933
0;
#X text 120 319 1\.;
#X text 150 319 *list*;
#X text 240 319 input list of floats.;
#X obj 20 347 cnv 1 685 1 empty empty empty 17 7 0 10 -203890 -1 0;
#X obj 20 352 cnv 5 73 26 empty empty outlets: 4 10 0 14 -262144
-49933 0;
#X text 120 357 1\.;
#X text 240 357 normalized vector - list of floats;
#X obj 10 48 ui.link @title index @url index-help.pd;
#X text 51 45 ::;
#X obj 67 48 ui.link @title ceammc @url ceammc-help.pd;
#X text 115 45 ::;
#X obj 131 48 ui.link @title vector @url ceammc.vector-help.pd;
#X obj 1 505 cnv 5 712 48 empty empty empty 17 7 0 10 -203890 -1 0;
#X text 10 508 library: ceammc v0.3;
#X text 309 520 see also:;
#X obj 385 520 vector.length;
#X obj 494 520 vector.distance;
#X obj 618 520 vector.dot;
#N canvas 10 527 400 290 info 0;
#X obj 1 1 cnv 1 107 287 empty empty empty 17 7 0 10 -183085 -1 0;
#X text 10 10 library:;
#X text 120 10 ceammc;
#X text 10 32 version:;
#X text 120 32 0.3;
#X text 10 54 object:;
#X text 120 54 vector.normalize;
#X text 10 76 category:;
#X text 120 76 vector;
#X text 10 98 since:;
#X text 120 98 0.1;
#X text 10 120 authors:;
#X text 120 120 Alex Nadzharov \, Serge Poltavsky;
#X text 10 142 license:;
#X text 120 142 GPL3;
#X text 10 164 keywords:;
#X text 120 164 list;
#X text 10 186 website:;
#X obj 120 189 ui.link @title https://github.com/uliss/pure-data @url
https://github.com/uliss/pure-data;
#X obj 120 208 declare -lib ceammc -lib creammc;
#X obj 120 268 cnv 1 270 1 empty empty empty 17 7 0 10 -203890 -1 0;
#X text 120 268 generated by pddoc;
#X restore 10 527 pd info;
#X connect 6 0 8 0;
#X connect 7 0 8 0;
#X connect 8 0 9 0;
#X connect 9 0 10 0;
